<svg width="440" height="267" viewBox="0 0 440 267" fill="none" xmlns="http://www.w3.org/2000/svg">
<g clip-path="url(#clip0)">
<path d="M279.825 266.942C368.287 266.942 440 260.49 440 252.531C440 244.571 368.287 238.119 279.825 238.119C191.363 238.119 119.651 244.571 119.651 252.531C119.651 260.49 191.363 266.942 279.825 266.942Z" fill="#3F3D56"/>
<path opacity="0.3" d="M201.534 117.755L375.392 117.755V2.28882e-05L201.534 2.28882e-05L201.534 117.755Z" fill="#3F3D56"/>
<path d="M364.294 10.7891H312.815V66.8921H364.294V10.7891Z" fill="#F2F2F2"/>
<path d="M231.435 14.1799L281.065 14.1799V10.789L231.435 10.789V14.1799Z" fill="#F2F2F2"/>
<path d="M312.815 78.9142H330.386V75.5233H312.815V78.9142Z" fill="#F2F2F2"/>
<path d="M313.432 85.0793H363.678V81.6885H313.432V85.0793Z" fill="#F2F2F2"/>
<path d="M221.262 26.5103L292.778 26.5103V23.1194L221.262 23.1194V26.5103Z" fill="#F2F2F2"/>
<path d="M221.262 36.0663L292.778 36.0663V32.6754L221.262 32.6754V36.0663Z" fill="#F2F2F2"/>
<path d="M221.262 45.6223L292.778 45.6223V42.2314L221.262 42.2314V45.6223Z" fill="#F2F2F2"/>
<path d="M221.262 55.1783L292.778 55.1783V51.7874L221.262 51.7874V55.1783Z" fill="#F2F2F2"/>
<path d="M221.262 64.7343L292.778 64.7343V61.3435L221.262 61.3435V64.7343Z" fill="#F2F2F2"/>
<path d="M221.262 74.2903L292.778 74.2903V70.8995L221.262 70.8995V74.2903Z" fill="#F2F2F2"/>
<path d="M221.262 83.8463L292.778 83.8463V80.4555L221.262 80.4555V83.8463Z" fill="#F2F2F2"/>
<path d="M320.546 42.825C321.308 42.2828 322.149 41.8612 323.039 41.5749C328.683 39.4749 334.596 38.1876 340.603 37.7516C345.825 37.3813 351.485 37.8212 355.564 41.1034C356.199 41.5689 356.718 42.1738 357.082 42.8715C357.595 43.9789 357.439 45.2661 357.273 46.4753C357.236 46.9443 357.118 47.4033 356.924 47.8319C356.375 48.877 355.024 49.2431 353.85 49.1178C352.676 48.9925 351.575 48.4959 350.417 48.2656C349.7 48.1407 348.976 48.0669 348.248 48.0448L340.987 47.6517C336.472 47.4072 331.897 47.1668 327.467 48.0781C326.104 48.3232 324.786 48.7772 323.561 49.4241C322.55 49.9921 321.868 50.8072 320.93 49.7581C319.281 47.9149 318.368 44.5274 320.546 42.825Z" fill="#2F2E41"/>
<path d="M331.799 46.0361C331.799 46.0361 341.566 41.6579 345.27 46.7097C348.975 51.7616 343.25 49.7408 343.25 49.7408L336.851 51.7616L329.778 50.4144L331.799 46.0361Z" fill="#F2F2F2"/>
<path d="M332.304 42.8367C332.304 42.8367 333.651 49.2357 332.641 50.9196C331.63 52.6036 338.366 54.9611 338.366 54.9611L344.765 52.2668C344.765 52.2668 343.081 41.8263 344.765 39.8055L332.304 42.8367Z" fill="#FFB9B9"/>
<path opacity="0.1" d="M332.304 42.8367C332.304 42.8367 333.651 49.2357 332.641 50.9196C331.63 52.6036 338.366 54.9611 338.366 54.9611L344.765 52.2668C344.765 52.2668 343.081 41.8263 344.765 39.8055L332.304 42.8367Z" fill="black"/>
<path d="M347.796 36.4376C347.794 39.1166 346.729 41.6853 344.834 43.5796C342.94 45.4739 340.371 46.5391 337.692 46.5413C337.09 46.5424 336.49 46.4882 335.897 46.3797C334.006 46.0382 332.252 45.1646 330.84 43.8614C329.428 42.5581 328.417 40.8793 327.926 39.0218C327.434 37.1642 327.482 35.2051 328.065 33.374C328.648 31.543 329.74 29.9161 331.215 28.6841C332.689 27.452 334.484 26.666 336.39 26.4182C338.295 26.1704 340.232 26.4711 341.972 27.285C343.713 28.0989 345.185 29.3923 346.217 31.0134C347.248 32.6345 347.796 34.5161 347.796 36.4376Z" fill="#FFB9B9"/>
<path d="M353.897 67.2003H321.675L322.405 64.0284L325.568 50.2461L329.224 47.777L329.227 47.7739L330.944 46.6117L331.798 46.0353C331.798 46.0353 332.303 46.2665 332.886 46.5809C333.056 46.6765 333.228 46.7751 333.401 46.8799C333.404 46.8769 333.404 46.8799 333.404 46.8799C333.683 47.0423 333.949 47.2268 334.199 47.4317C334.245 47.4749 334.286 47.5119 334.326 47.552C334.967 48.1931 336.838 51.5963 339.933 49.8546C340.089 49.7688 340.24 49.6741 340.386 49.5711C341.193 49.0128 341.962 48.4021 342.689 47.7431C343.339 47.1481 343.761 46.6888 344.107 46.3713C344.261 46.2169 344.438 46.0861 344.631 45.9829C344.776 45.9066 344.938 45.8674 345.102 45.8689C346.113 45.8689 347.461 47.8879 347.461 47.8879L347.501 48.0051L347.504 48.0143L351.755 60.7762L353.897 67.2003Z" fill="#F2F2F2"/>
<path d="M321.675 67.2004H331.44C331.462 66.0715 331.403 64.9424 331.265 63.8219C330.966 61.5685 330.232 59.3984 329.769 57.1727C329.363 55.2224 329.165 53.2341 329.181 51.2418C329.184 50.9675 329.19 50.6901 329.215 50.4126C329.239 49.7774 329.422 49.1584 329.748 48.6124C329.979 48.2579 330.297 47.9558 330.543 47.6167C330.629 47.5057 330.704 47.3871 330.768 47.2622V47.2592C330.799 47.1979 330.827 47.1351 330.851 47.0711C330.906 46.9237 330.937 46.7688 330.944 46.6118C330.999 45.5946 330.078 44.6143 329.082 44.1951C327.685 43.6703 326.155 43.6087 324.72 44.0194C323.298 44.4305 321.923 44.9927 320.62 45.6963C320.18 45.9121 319.742 46.134 319.32 46.3806C318.815 46.6666 318.352 47.0191 317.942 47.4287C316.893 48.5107 316.434 50.0181 316.064 51.4761C315.712 52.5907 315.591 53.7657 315.71 54.9286C315.713 54.9656 315.722 55.0057 315.728 55.0427C316.095 56.9632 317.661 58.4058 318.496 60.1752C319.464 62.2282 319.4 64.6203 319.014 66.8583C318.996 66.9723 318.974 67.0864 318.953 67.2004H321.675V67.2004Z" fill="#2F2E41"/>
<path d="M361.428 54.867C360.202 58.8976 359.312 63.0229 358.767 67.2004H344.846C344.483 66.2078 344.12 65.2142 343.758 64.2195C343.47 63.469 343.222 62.7034 343.015 61.9261C342.795 61.0223 342.69 60.0942 342.704 59.1641C342.704 58.9421 342.713 58.7171 342.732 58.4952C342.733 58.4935 342.734 58.4913 342.734 58.489C342.734 58.4867 342.733 58.4845 342.732 58.4828C342.816 57.3097 343.088 56.1577 343.536 55.0704C343.742 54.5761 343.979 54.0953 344.245 53.6308C344.893 52.4594 345.676 51.3559 346.372 50.2092C346.806 49.5084 347.185 48.7745 347.504 48.0144C347.503 48.0127 347.504 48.011 347.504 48.0094C347.505 48.0078 347.506 48.0063 347.507 48.0051C347.923 47.0358 348.14 45.9928 348.145 44.938C348.123 43.5785 345.824 41.208 348.324 41.4361C351.736 41.7444 354.668 43.708 357.34 45.946C358.052 46.544 358.749 47.1636 359.43 47.7739C360.484 48.7234 361.597 49.7591 361.915 51.1432C361.966 51.3639 361.996 51.5889 362.004 51.8152C361.986 52.8577 361.791 53.8896 361.428 54.867Z" fill="#2F2E41"/>
<path d="M340.562 51.1492C340.212 50.2024 339.674 49.3357 338.982 48.6008C338.283 48.0104 337.456 47.5915 336.567 47.3776C335.415 47.0485 334.224 46.8777 333.025 46.87C331.599 46.8611 329.945 47.2437 329.34 48.5351C328.859 49.5606 329.231 50.7749 329.716 51.7988C329.923 52.3293 330.267 52.7949 330.714 53.1476C331.329 53.5632 332.125 53.55 332.854 53.6892C333.985 53.9763 335.055 54.4615 336.017 55.1223L338.515 56.6324L342.806 59.2262C342.693 59.1579 342.733 56.2152 342.601 55.733C342.177 54.1794 341.221 52.6204 340.562 51.1492Z" fill="#FFB9B9"/>
<path d="M347.542 31.1721C347.362 30.5679 346.966 30.051 346.43 29.7202C346.457 29.073 346.378 28.4256 346.195 27.8042C345.583 25.9952 344.134 26.0989 342.766 25.2992C342.172 24.9522 342.209 24.6455 341.9 24.0756C341.495 23.3285 340.889 22.7099 340.15 22.2902C339.273 21.7312 338.347 21.1555 337.309 21.0847C335.127 20.936 333.455 22.9878 331.37 23.6463C330.451 23.9365 329.464 23.9485 328.54 24.2229C327.616 24.4972 326.694 25.1524 326.556 26.1062C326.493 26.5466 326.605 26.9983 326.541 27.4385C326.412 28.3135 325.645 28.9263 325.131 29.646C323.995 31.2374 324.125 33.4857 325.033 35.2173C325.225 35.5756 325.444 35.9184 325.689 36.2427C325.764 37.0612 325.999 37.8569 326.38 38.5852C327.289 40.3168 328.853 41.6107 330.487 42.6857C330.353 42.1114 330.272 41.5261 330.244 40.9371C330.221 40.7408 330.247 40.5419 330.319 40.3578C330.5 39.9775 330.981 39.8764 331.348 39.6681C332.107 39.2367 332.405 38.282 332.426 37.4091C332.448 36.5363 332.263 35.662 332.355 34.7936C332.358 34.5939 332.404 34.3972 332.488 34.2162C332.572 34.0351 332.694 33.8737 332.844 33.7424C333.124 33.5825 333.444 33.5062 333.767 33.5224C335.322 33.459 336.947 33.4304 338.319 32.6949C338.761 32.401 339.237 32.1604 339.736 31.9781C340.902 31.674 342.094 32.4913 342.766 33.4914C343.437 34.4916 343.772 35.6818 344.392 36.715C345.012 37.7482 346.083 38.6696 347.282 38.5472C347.35 38.5474 347.416 38.5333 347.478 38.5058C347.54 38.4784 347.595 38.4383 347.64 38.388C347.692 38.2951 347.715 38.189 347.706 38.083L347.773 33.501C347.829 32.7172 347.751 31.9296 347.542 31.1721Z" fill="#2F2E41"/>
<path d="M320.895 61.7719C321.114 63.5752 321.246 65.3847 321.292 67.2004H312.815V60.0765C312.858 59.9039 312.905 59.7343 312.96 59.5648C313.49 57.931 314.603 56.5623 315.568 55.1413C315.614 55.0703 315.664 54.9995 315.71 54.9286C316.12 54.3291 316.473 53.6923 316.764 53.0266C316.903 52.6999 317.125 51.1185 317.359 50.9829C318.364 50.4003 319.181 52.891 319.32 53.4459C319.813 55.4218 320.241 57.4162 320.565 59.4292C320.691 60.2091 320.801 60.99 320.895 61.7719Z" fill="#2F2E41"/>
<path d="M363.733 67.2004H344.273C344.107 66.8089 343.943 66.4174 343.771 66.029C342.557 63.2842 340.988 60.7108 339.104 58.3749C338.793 58.0661 338.591 57.6648 338.527 57.2313C338.521 57.0512 338.564 56.873 338.654 56.7165C338.95 56.1647 339.733 55.841 340.368 55.579C341.024 55.3147 341.627 54.9347 342.149 54.4569C342.611 54.0416 342.964 53.5199 343.179 52.9372C343.236 52.7663 343.279 52.5911 343.308 52.4132C343.398 52.5303 343.49 52.6506 343.58 52.7677C343.798 53.0575 344.02 53.3441 344.245 53.6308C346.403 56.4021 348.774 59.1332 351.755 60.7762C352.533 61.2102 353.356 61.5605 354.208 61.8213C354.29 61.8571 354.378 61.8756 354.467 61.8756C354.556 61.8756 354.645 61.8571 354.726 61.8213C354.852 61.718 354.933 61.5699 354.951 61.4082C355.216 60.2985 355.309 59.1548 355.503 58.0297C355.86 55.9826 356.546 54.0067 357.534 52.179C358.086 51.1524 359.88 47.4009 361.018 49.7653C361.344 50.4465 361.673 51.1298 362.004 51.8152C362.211 52.2498 362.42 52.6814 362.63 53.1161C363.403 54.495 363.756 56.0703 363.644 57.6475C363.675 60.8348 363.705 64.0191 363.733 67.2004Z" fill="#2F2E41"/>
<path opacity="0.1" d="M321.675 67.2004H323.361L322.405 64.0284L321.027 59.4569C321.043 60.2309 320.999 61.0049 320.895 61.7719C320.687 63.3573 320.233 64.9006 319.551 66.3465C319.418 66.627 319.276 66.9106 319.162 67.2004H321.675Z" fill="black"/>
<path opacity="0.1" d="M356.021 57.4521C355.783 58.0907 355.999 58.7968 356.182 59.453C356.712 61.3564 356.96 63.3273 356.917 65.3027C356.925 65.3373 356.923 65.3732 356.914 65.4072C356.904 65.4413 356.886 65.4724 356.861 65.4977C356.837 65.523 356.806 65.5418 356.772 65.5523C356.738 65.5628 356.703 65.5648 356.668 65.5579C355.89 65.6055 355 65.6106 354.473 65.0375L356.021 57.4521Z" fill="black"/>
<path opacity="0.3" d="M173.858 1.21204H0V118.967H173.858V1.21204Z" fill="#3F3D56"/>
<path d="M62.5765 12.0011H11.0973V68.1042H62.5765V12.0011Z" fill="#F2F2F2"/>
<path d="M143.957 12.0011H94.3271V15.3919H143.957V12.0011Z" fill="#F2F2F2"/>
<path d="M29.2846 76.7354H11.7139V80.1262H29.2846V76.7354Z" fill="#F2F2F2"/>
<path d="M61.96 82.9006H11.7139V86.2914H61.96V82.9006Z" fill="#F2F2F2"/>
<path d="M154.129 24.3314H82.6133V27.7223H154.129V24.3314Z" fill="#F2F2F2"/>
<path d="M154.129 33.8875H82.6133V37.2783H154.129V33.8875Z" fill="#F2F2F2"/>
<path d="M154.129 43.4435H82.6133V46.8343H154.129V43.4435Z" fill="#F2F2F2"/>
<path d="M154.129 52.9995H82.6133V56.3903H154.129V52.9995Z" fill="#F2F2F2"/>
<path d="M154.129 62.5555H82.6133V65.9463H154.129V62.5555Z" fill="#F2F2F2"/>
<path d="M154.129 72.1115H82.6133V75.5023H154.129V72.1115Z" fill="#F2F2F2"/>
<path d="M154.129 81.6675H82.6133V85.0584H154.129V81.6675Z" fill="#F2F2F2"/>
<path d="M61.177 68.4124H54.4847C53.9699 67.0283 53.5126 65.6267 53.1129 64.2077C52.8492 62.5393 52.0886 60.9891 50.9304 59.7595C50.5768 59.3653 50.262 58.9379 49.9903 58.4834C49.4165 57.364 49.2095 56.0925 49.3984 54.849C49.4369 54.5029 49.4945 54.1591 49.571 53.8194C49.8639 52.5031 50.354 51.2393 50.764 49.9569C50.8506 49.6965 51.0087 49.4657 51.2202 49.2907C51.4316 49.1158 51.688 49.0037 51.96 48.9674C52.4012 48.8935 52.8543 48.9459 53.267 49.1184C53.3583 49.1556 53.446 49.201 53.5291 49.2541C54.2596 49.6949 54.6388 50.595 54.944 51.4181C56.3404 55.1665 57.7358 58.9149 59.1301 62.6633C59.4014 63.3908 59.6727 64.1204 59.9439 64.852C60.3447 65.9247 60.7423 66.9974 61.0814 68.0918C61.1153 68.1997 61.1461 68.3045 61.177 68.4124Z" fill="#D0CDE1"/>
<path d="M33.3171 19.0758C31.6532 19.6377 30.1457 20.9521 29.805 22.6749C29.647 23.4736 29.7439 24.3038 29.611 25.107C29.3027 26.9697 27.8405 28.3923 26.4919 29.7137C25.1433 31.0351 23.7505 32.5705 23.6521 34.456C23.5443 36.5206 25.0417 38.4549 24.7826 40.5061C24.4816 42.8892 21.9646 44.4333 21.3423 46.7534C20.9269 48.3025 21.436 49.9713 22.2736 51.3391C23.8698 53.9457 26.5982 55.7152 29.5037 56.6639C32.4092 57.6125 35.5036 57.8121 38.5599 57.8441C42.2812 57.8831 46.3216 57.5636 49.1177 55.1075C50.7148 53.6921 51.7178 51.7252 51.9256 49.6012C52.1912 46.7562 51.0038 43.8166 51.8229 41.0791C52.3383 39.3563 53.631 37.7829 53.4381 35.995C53.2495 34.2469 51.7227 33.0078 50.6753 31.5956C49.6973 30.2771 49.1039 28.7199 48.5223 27.1848L46.5324 21.9321C46.1412 20.8995 45.7116 19.8135 44.8398 19.1358C43.2078 17.8671 40.5835 18.1164 38.6751 18.378C36.9047 18.6208 35.0197 18.5008 33.3171 19.0758Z" fill="#2F2E41"/>
<path d="M34.8564 36.3863C34.8564 36.3863 35.0512 42.2296 34.4669 42.8139C33.8825 43.3982 36.8042 47.2938 36.8042 47.2938L42.0631 47.099L44.79 44.9565L42.4527 41.8401C42.4527 41.8401 41.4788 36.7759 42.2579 35.6072C43.037 34.4386 34.8564 36.3863 34.8564 36.3863Z" fill="#A0616A"/>
<path opacity="0.1" d="M34.8564 36.3863C34.8564 36.3863 35.0512 42.2296 34.4669 42.8139C33.8825 43.3982 36.8042 47.2938 36.8042 47.2938L42.0631 47.099L44.79 44.9565L42.4527 41.8401C42.4527 41.8401 41.4788 36.7759 42.2579 35.6072C43.037 34.4386 34.8564 36.3863 34.8564 36.3863Z" fill="black"/>
<path d="M38.0702 38.6262C41.9428 38.6262 45.0822 35.4869 45.0822 31.6143C45.0822 27.7417 41.9428 24.6024 38.0702 24.6024C34.1976 24.6024 31.0583 27.7417 31.0583 31.6143C31.0583 35.4869 34.1976 38.6262 38.0702 38.6262Z" fill="#A0616A"/>
<path d="M41.6642 68.4124H47.3485C47.5612 68.0271 47.7616 67.6263 47.9928 67.2626V67.2595C48.2455 66.8196 48.6008 66.4473 49.0285 66.1744C49.3004 66.0499 49.5578 65.8959 49.7961 65.7151C50.0241 65.4678 50.1853 65.1665 50.2646 64.8397C50.6561 63.6166 50.872 62.3442 50.9058 61.0604C50.9151 60.6288 50.9058 60.1911 50.9305 59.7596C50.9426 59.4223 50.986 59.087 51.0599 58.7577C51.255 58.0883 51.538 57.4477 51.9015 56.8527C52.6721 55.4501 53.4448 54.0475 54.2196 52.645C54.3592 52.2498 54.4128 51.8294 54.3768 51.4119C54.3601 50.8487 54.1872 50.3012 53.8774 49.8306C53.7695 49.6363 53.6524 49.4421 53.5291 49.2541C53.0536 48.4954 52.4998 47.7887 51.8768 47.1456C50.555 45.7594 48.9508 44.6735 47.1728 43.9613C46.9497 43.8862 46.7373 43.7826 46.5408 43.653C46.309 43.4571 46.1129 43.2224 45.9613 42.9595C45.3448 42.0316 44.5926 40.9866 43.4798 41.0452C43.2987 40.9543 43.1013 40.9004 42.8991 40.8866C42.6969 40.8729 42.4941 40.8995 42.3023 40.9651C42.2438 40.9803 42.1861 40.9988 42.1297 41.0205C41.7044 41.2088 41.2915 41.424 40.8936 41.6648C39.8698 42.1962 38.7096 42.4068 37.5644 42.269C37.43 42.2596 37.2985 42.2261 37.176 42.1703C37.046 42.0879 36.926 41.9907 36.8184 41.8806C36.5371 41.6502 36.1997 41.4986 35.8406 41.4412C35.4816 41.3838 35.1137 41.4226 34.7746 41.5538C34.4562 41.6673 34.1748 41.8655 33.9608 42.1272C33.7574 42.383 33.6156 42.6913 33.3905 42.9317C32.8079 43.5544 31.8462 43.5791 30.9954 43.576C29.2283 43.5266 27.4618 43.6891 25.7334 44.06C24.2154 44.3968 22.7969 45.0828 21.5904 46.0636L21.5873 46.0667C21.4209 46.2085 21.2667 46.3534 21.1126 46.5075C20.762 46.8378 20.4829 47.2365 20.2926 47.6789C20.0583 48.2831 20.0892 48.9644 19.8765 49.5778C19.6422 50.2652 19.1212 50.8262 18.9116 51.5167C18.7513 52.0408 18.7729 52.6203 18.5078 53.095C18.5201 53.1043 18.5294 53.1135 18.5417 53.1228C19.6638 54.1092 20.6225 55.4039 21.7476 56.381C22.4006 56.8785 22.953 57.4958 23.3752 58.1998C23.4565 58.358 23.5235 58.523 23.5756 58.693C23.7022 59.2823 23.758 59.8846 23.742 60.4871C23.8838 63.3693 25.4467 65.9833 27.1945 68.2767C27.2284 68.323 27.2624 68.3692 27.2993 68.4124L41.6642 68.4124Z" fill="#D0CDE1"/>
<path d="M23.3753 58.1998C23.1102 60.04 22.843 61.8793 22.5738 63.7176C22.4514 64.7021 22.2681 65.678 22.0251 66.6399C21.8648 67.2348 21.6583 67.8174 21.5134 68.4124H13.4863C13.4904 68.0792 13.5162 67.7466 13.5634 67.4167C13.7701 66.2317 14.106 65.0729 14.5652 63.9611C15.4993 61.4396 16.4323 58.9159 17.3642 56.3903C17.7619 55.3145 18.104 54.1893 18.5418 53.1227C18.6188 52.9255 18.7021 52.7282 18.7915 52.537C19.2569 51.5136 20.5485 51.9329 21.5041 52.087C21.7665 52.1196 22.0222 52.1924 22.2624 52.3028C22.5529 52.4628 22.798 52.694 22.9745 52.9748C23.8808 54.3157 23.6835 56.0882 23.4493 57.6911C23.4246 57.8607 23.3999 58.0302 23.3753 58.1998Z" fill="#D0CDE1"/>
<path d="M47.9927 67.2626C48.0051 67.3057 48.1376 67.765 48.3565 68.4124H41.6642C44.981 67.8421 47.9927 67.2595 47.9927 67.2595V67.2626Z" fill="#2F2E41"/>
<path d="M38.6546 31.6143C42.8499 31.6143 46.2508 29.783 46.2508 27.524C46.2508 25.265 42.8499 23.4337 38.6546 23.4337C34.4593 23.4337 31.0583 25.265 31.0583 27.524C31.0583 29.783 34.4593 31.6143 38.6546 31.6143Z" fill="#2F2E41"/>
<path d="M285.234 44.5616H111.377V162.316H285.234V44.5616Z" fill="#3F3D56"/>
<path opacity="0.1" d="M259.957 154.302C271.194 154.302 280.302 153.336 280.302 152.144C280.302 150.952 271.194 149.986 259.957 149.986C248.721 149.986 239.612 150.952 239.612 152.144C239.612 153.336 248.721 154.302 259.957 154.302Z" fill="black"/>
<path d="M173.953 55.3506H122.474V111.454H173.953V55.3506Z" fill="#F2F2F2"/>
<path d="M139.051 81.1094C139.218 81.1603 139.398 81.1516 139.559 81.0848C139.721 81.0181 139.854 80.8975 139.936 80.7435C140.648 79.6216 139.338 78.1751 139.621 76.8771C139.849 75.8371 141.031 75.2199 141.272 74.1832C141.507 73.1759 140.783 72.0404 141.272 71.129C141.655 70.4149 142.612 70.227 143.413 70.352C144.214 70.4771 144.974 70.8291 145.782 70.8784C146.86 70.9441 147.888 70.4697 148.941 70.2346C149.995 69.9995 151.281 70.0916 151.901 70.9756C152.697 72.1108 151.889 73.6914 152.167 75.0499C152.387 76.1286 153.29 77.0218 153.309 78.1226C153.316 78.5139 152.287 78.1987 152.342 78.5862C152.397 78.9736 151.911 78.6325 152.299 78.5865C152.458 78.5476 152.6 78.4592 152.705 78.3342C152.81 78.2091 152.873 78.0539 152.884 77.8909C152.93 77.5682 153.537 77.4606 153.53 77.1346C153.513 76.3707 154.894 76.8858 155.122 76.1564C155.645 74.4559 155.538 72.6239 154.82 70.9962C154.45 70.3313 154.154 69.6275 153.939 68.8977C153.736 67.8848 154.055 66.7975 153.72 65.8202C153.269 64.5032 151.777 63.8319 150.392 63.6955C149.006 63.5592 147.599 63.8032 146.221 63.6022C144.987 63.422 143.792 62.8872 142.548 62.9647C141.054 63.0577 139.755 64.02 138.72 65.1004C137.684 66.1808 136.806 67.4235 135.63 68.3491C135.27 68.5968 134.938 68.8827 134.64 69.2018C134.041 69.9316 133.98 70.9712 134.147 71.9004C134.313 72.8296 134.676 73.7159 134.829 74.6475C134.973 75.5229 134.928 76.4173 134.99 77.3023C135.005 78.1949 135.275 79.0646 135.769 79.8082C135.982 80.0979 136.259 80.3351 136.578 80.5018C136.897 80.6684 137.25 80.76 137.609 80.7697C137.859 80.7755 138.069 80.5515 138.321 80.6099C138.635 80.6829 138.772 80.9815 139.051 81.1094Z" fill="#2F2E41"/>
<path d="M127.73 111.762C127.955 108.676 128.124 106.371 128.124 106.371L129.579 102.536L134.249 111.762L127.73 111.762Z" fill="#575A89"/>
<path opacity="0.1" d="M127.73 111.762C127.955 108.676 128.124 106.371 128.124 106.371L129.579 102.536L134.249 111.762L127.73 111.762Z" fill="black"/>
<path d="M138.552 81.4232C138.552 81.4232 142.907 92.5078 140.4 94.6192C137.893 96.7305 154.388 91.0563 154.388 91.0563L153.992 89.6047C153.992 89.6047 148.581 87.4934 151.221 81.4232C153.86 75.3531 138.552 81.4232 138.552 81.4232Z" fill="#A0616A"/>
<path opacity="0.1" d="M138.552 81.4232C138.552 81.4232 142.907 92.5078 140.4 94.6192C137.893 96.7305 154.388 91.0563 154.388 91.0563L153.992 89.6047C153.992 89.6047 148.581 87.4934 151.221 81.4232C153.86 75.3531 138.552 81.4232 138.552 81.4232Z" fill="black"/>
<path d="M144.755 85.9099C149.856 85.9099 153.992 81.7742 153.992 76.6727C153.992 71.5712 149.856 67.4355 144.755 67.4355C139.653 67.4355 135.517 71.5712 135.517 76.6727C135.517 81.7742 139.653 85.9099 144.755 85.9099Z" fill="#A0616A"/>
<path d="M167.187 96.5987C167.187 96.5987 167.15 97.3324 167.085 98.6147C166.953 101.226 166.715 106.118 166.478 111.762H130.671C129.735 110.509 128.969 109.138 128.393 107.684C128.237 107.262 128.146 106.819 128.124 106.371C127.927 102.872 131.062 97.989 133.275 97.5235C135.781 96.9933 140.532 91.981 140.532 91.981C140.547 92.1718 140.61 92.3556 140.716 92.5152C140.822 92.6748 140.966 92.805 141.136 92.8934V92.8965C141.519 93.0945 141.947 93.188 142.378 93.1678C143.926 93.1678 150.732 90.0267 152.918 89.0001C153.346 88.7998 153.596 88.6796 153.596 88.6796C156.116 89.7674 158.72 90.6508 161.382 91.3213C162.711 91.6527 163.936 92.3081 164.949 93.2291C165.962 94.1501 166.731 95.3078 167.187 96.5987Z" fill="#575A89"/>
<path d="M137.467 80.1857C137.634 80.2365 137.814 80.2278 137.976 80.161C138.137 80.0943 138.27 79.9737 138.353 79.8197C139.065 78.6979 137.754 77.2513 138.038 75.9533C138.265 74.9134 139.447 74.2961 139.689 73.2594C139.923 72.2521 139.2 71.1166 139.689 70.2052C140.072 69.4911 141.029 69.3032 141.829 69.4283C142.63 69.5534 143.39 69.9053 144.199 69.9546C145.277 70.0204 146.304 69.5459 147.358 69.3108C148.412 69.0757 149.697 69.1678 150.317 70.0518C151.113 71.187 150.306 72.7677 150.583 74.1261C150.803 75.2049 153.311 75.962 153.538 75.2326C154.061 73.5322 153.954 71.7002 153.236 70.0724C152.866 69.4075 152.571 68.7037 152.355 67.9739C152.152 66.961 152.471 65.8737 152.137 64.8965C151.686 63.5795 150.194 62.9081 148.808 62.7717C147.423 62.6354 146.015 62.8795 144.638 62.6784C143.404 62.4983 142.209 61.9635 140.964 62.0409C139.471 62.1339 138.171 63.0962 137.136 64.1766C136.101 65.257 135.223 66.4997 134.047 67.4253C133.687 67.673 133.355 67.9589 133.056 68.278C132.457 69.0078 132.397 70.0474 132.563 70.9766C132.73 71.9058 133.092 72.7922 133.245 73.7237C133.389 74.5991 133.345 75.4935 133.407 76.3785C133.421 77.2711 133.692 78.1408 134.185 78.8845C134.399 79.1742 134.676 79.4113 134.995 79.578C135.313 79.7446 135.666 79.8362 136.026 79.8459C136.275 79.8517 136.486 79.6278 136.737 79.6862C137.051 79.7592 137.188 80.0577 137.467 80.1857Z" fill="#2F2E41"/>
<path opacity="0.1" d="M171.765 111.762H161.315C160.519 105.93 159.863 99.8324 159.863 99.8324L161.974 98.9076L166.265 96.5988C166.265 96.5988 166.58 97.3447 167.085 98.6148C168.164 101.331 170.122 106.441 171.765 111.762Z" fill="black"/>
<path d="M172.686 111.762H160.892C159.144 105.381 157.421 98.4452 157.421 98.4452L161.909 95.1469L167.187 96.5988C167.187 96.5988 170.276 103.951 172.686 111.762Z" fill="#575A89"/>
<path d="M255.333 55.3506H205.704V58.7415H255.333V55.3506Z" fill="#4F8A8B"/>
<path d="M140.661 120.085H123.091V123.476H140.661V120.085Z" fill="#4F8A8B"/>
<path d="M173.337 126.25H123.091V129.641H173.337V126.25Z" fill="#4F8A8B"/>
<path d="M265.506 67.681H193.99V71.0718H265.506V67.681Z" fill="#F2F2F2"/>
<path d="M265.506 77.237H193.99V80.6278H265.506V77.237Z" fill="#F2F2F2"/>
<path d="M265.506 86.793H193.99V90.1839H265.506V86.793Z" fill="#F2F2F2"/>
<path d="M265.506 96.349H193.99V99.7398H265.506V96.349Z" fill="#F2F2F2"/>
<path d="M265.506 105.905H193.99V109.296H265.506V105.905Z" fill="#F2F2F2"/>
<path d="M265.506 115.461H193.99V118.852H265.506V115.461Z" fill="#F2F2F2"/>
<path d="M265.506 125.017H193.99V128.408H265.506V125.017Z" fill="#F2F2F2"/>
<path d="M279.291 125.475L259.741 145.025L251.524 136.808C251.263 136.547 250.954 136.34 250.613 136.199C250.272 136.058 249.907 135.985 249.538 135.985C249.169 135.985 248.804 136.058 248.463 136.199C248.122 136.34 247.813 136.547 247.552 136.808L247.257 136.366C246.16 137.463 246.455 139.683 247.552 140.78L258.213 151.441C258.615 151.843 259.16 152.069 259.728 152.069C260.296 152.069 260.841 151.844 261.243 151.442L283.261 129.448C284.358 128.351 284.757 126.34 283.66 125.243C282.563 124.147 280.387 124.379 279.291 125.475Z" fill="#57B894"/>
<path opacity="0.1" d="M279.291 125.475L259.741 145.025L251.524 136.808C251.263 136.547 250.954 136.34 250.613 136.199C250.272 136.058 249.907 135.985 249.538 135.985C249.169 135.985 248.804 136.058 248.463 136.199C248.122 136.34 247.813 136.547 247.552 136.808L247.257 136.366C246.16 137.463 246.455 139.683 247.552 140.78L258.213 151.441C258.615 151.843 259.16 152.069 259.728 152.069C260.296 152.069 260.841 151.844 261.243 151.442L283.261 129.448C284.358 128.351 284.757 126.34 283.66 125.243C282.563 124.147 280.387 124.379 279.291 125.475Z" fill="black"/>
<path d="M279.291 124.608L259.741 144.158L251.524 135.941C251.263 135.68 250.954 135.474 250.613 135.332C250.272 135.191 249.907 135.119 249.538 135.119C249.169 135.119 248.804 135.191 248.463 135.332C248.122 135.474 247.813 135.68 247.552 135.941C247.291 136.202 247.084 136.512 246.943 136.853C246.802 137.193 246.729 137.559 246.729 137.927C246.729 138.296 246.802 138.662 246.943 139.002C247.084 139.343 247.291 139.653 247.552 139.914L258.213 150.575C258.615 150.977 259.16 151.202 259.728 151.202C260.296 151.203 260.841 150.977 261.243 150.576L283.261 128.581C283.522 128.32 283.729 128.011 283.87 127.67C284.011 127.329 284.084 126.964 284.084 126.595C284.084 126.226 284.012 125.861 283.871 125.52C283.73 125.179 283.523 124.869 283.262 124.608C282.735 124.082 282.021 123.786 281.276 123.786C280.531 123.786 279.817 124.082 279.291 124.608Z" fill="#57B894"/>
<path opacity="0.1" d="M423.118 237.841C423.118 259.883 392.393 253.065 354.773 253.065C317.153 253.065 286.884 259.883 286.884 237.841C286.884 215.798 317.605 211.003 355.225 211.003C392.845 211.003 423.118 215.798 423.118 237.841Z" fill="black"/>
<path d="M423.118 233.723C423.118 255.766 392.393 248.948 354.773 248.948C317.153 248.948 286.884 255.766 286.884 233.723C286.884 211.68 317.605 206.886 355.225 206.886C392.845 206.886 423.118 211.68 423.118 233.723Z" fill="#3F3D56"/>
<path d="M294.678 164.667L293.286 166.283C293.286 166.283 276.358 167.873 277.045 170.621C277.732 173.369 297.426 166.957 297.426 166.957L294.678 164.667Z" fill="#FFC1C7"/>
<path d="M325.364 163.293C325.364 163.293 307.273 169.705 297.426 166.957L302.006 176.117C302.006 176.117 325.364 175.43 329.487 171.308C333.609 167.186 325.364 163.293 325.364 163.293Z" fill="#4F8A8B"/>
<path opacity="0.1" d="M325.364 163.293C325.364 163.293 307.273 169.705 297.426 166.957L302.006 176.117C302.006 176.117 325.364 175.43 329.487 171.308C333.609 167.186 325.364 163.293 325.364 163.293Z" fill="black"/>
<path d="M313.113 114.171C319.816 114.171 325.25 108.737 325.25 102.034C325.25 95.3311 319.816 89.8971 313.113 89.8971C306.41 89.8971 300.976 95.3311 300.976 102.034C300.976 108.737 306.41 114.171 313.113 114.171Z" fill="#FFC1C7"/>
<path d="M323.462 113.429C323.88 114.226 324.409 114.96 325.034 115.608C326.697 117.417 328.681 118.902 330.885 119.986C323.996 121.386 317.038 122.421 310.04 123.086C310.779 120.484 309.806 117.701 308.499 115.333C307.192 112.965 305.526 110.758 304.708 108.18L312.911 108.4C314.4 108.44 315.893 108.485 317.381 108.412C318.494 108.357 320.347 107.691 321.385 107.937C323.58 108.455 322.504 111.482 323.462 113.429Z" fill="#FFC1C7"/>
<path d="M351.013 170.392L357.883 178.636C357.883 178.636 369.333 205.429 344.372 208.178C319.41 210.926 300.861 206.116 300.861 206.116C300.861 206.116 290.785 201.307 290.556 204.971C290.327 208.635 289.411 218.941 283.915 229.017L279.106 240.009C279.106 240.009 276.587 242.528 277.274 245.963C277.961 249.398 261.93 250.543 262.159 245.963C262.159 245.963 264.45 242.07 264.45 239.78C264.45 237.49 268.114 231.994 268.114 231.994L274.755 199.017C274.755 199.017 274.297 182.071 289.869 185.277C305.441 188.483 327.655 184.59 327.655 184.59L332.693 166.957L351.013 170.392Z" fill="#2F2E41"/>
<path opacity="0.1" d="M351.013 170.392L357.883 178.636C357.883 178.636 369.333 205.429 344.372 208.178C319.41 210.926 300.861 206.116 300.861 206.116C300.861 206.116 290.785 201.307 290.556 204.971C290.327 208.635 289.411 218.941 283.915 229.017L279.106 240.009C279.106 240.009 276.587 242.528 277.274 245.963C277.961 249.398 261.93 250.543 262.159 245.963C262.159 245.963 264.45 242.07 264.45 239.78C264.45 237.49 268.114 231.994 268.114 231.994L274.755 199.017C274.755 199.017 274.297 182.071 289.869 185.277C305.441 188.483 327.655 184.59 327.655 184.59L332.693 166.957L351.013 170.392Z" fill="black"/>
<path d="M325.25 169.789C325.25 169.789 346.204 161.919 357.883 178.636C357.883 178.636 360.86 204.513 348.952 205.658C337.044 206.804 321.471 206.574 317.807 202.681C314.143 198.788 291.014 187.796 291.014 187.796C291.014 187.796 279.5 181.924 277.242 189.554C274.984 197.185 274.755 199.017 274.755 199.017C274.755 199.017 262.846 207.72 258.037 209.323C258.037 209.323 254.831 213.903 252.999 213.903C251.167 213.903 239.946 216.422 241.091 207.949L259.64 191.002L278.19 172.911C278.19 172.911 283.457 165.125 296.968 169.247C305.935 171.915 315.03 174.132 324.219 175.888L325.25 169.789Z" fill="#2F2E41"/>
<path d="M276.587 245.505C276.587 245.505 280.938 256.497 277.274 257.871C273.61 259.245 265.823 258.329 265.823 258.329C265.823 258.329 256.663 257.184 254.373 257.413C252.083 257.642 242.694 255.81 244.068 252.146C245.442 248.482 252.541 249.398 252.541 249.398L258.953 246.421C258.953 246.421 259.64 244.131 261.243 245.047C262.846 245.963 267.426 249.398 276.587 245.505Z" fill="#CBCEDA"/>
<path d="M252.77 212.987C252.77 212.987 257.579 223.75 249.793 222.834C242.007 221.918 236.053 220.315 233.763 220.086C231.56 219.865 225.331 217.738 226.287 213.5C226.338 213.226 226.359 212.947 226.349 212.668C226.349 212.099 227.122 210.983 233.305 211.155C233.305 211.155 237.885 211.155 239.717 207.948C239.717 207.948 246.587 216.651 252.77 212.987Z" fill="#CBCEDA"/>
<path d="M304.754 121.385C304.754 121.385 321.242 111.08 334.983 121.385C348.723 131.69 357.883 178.636 357.883 178.636L326.051 171.537C326.051 171.537 324.677 166.041 322.845 165.125C321.013 164.209 320.784 160.316 320.784 160.316C320.784 160.316 310.937 157.339 311.624 145.888C312.311 134.438 304.754 121.385 304.754 121.385Z" fill="#4F8A8B"/>
<path d="M313.227 121.843H304.754C304.754 121.843 299.716 127.568 299.029 141.995L296.281 153.446C296.281 153.446 290.556 167.186 293.991 169.476C297.426 171.766 304.067 171.537 305.441 166.957C306.815 162.377 316.204 135.812 316.204 135.812L313.227 121.843Z" fill="#4F8A8B"/>
<path d="M310.799 86.2387C312.9 85.3773 315.198 85.1156 317.439 85.483C319.679 85.8504 321.774 86.8323 323.49 88.3195C327.888 92.2444 328.775 98.6472 329.887 104.436C330.999 110.225 333.235 116.672 338.691 118.903C336.232 119.232 333.736 119.159 331.3 118.688L339.545 126.077L325.656 121.55C321.297 120.129 316.719 118.69 312.205 119.493C304.727 120.822 299.521 127.852 292.339 130.321L293.137 126.427L288.318 126.39C289.472 125.536 290.417 124.429 291.079 123.155C290.852 122.879 290.572 122.652 290.255 122.486C289.938 122.321 289.592 122.22 289.236 122.191C287.227 109.662 294.667 97.2763 304.363 89.0906C306.27 87.4805 308.38 85.9341 310.844 85.5313C313.307 85.1286 316.182 86.23 317.039 88.5743" fill="#2F2E41"/>
<path d="M100.67 201.065C100.67 227.425 117.207 248.754 137.643 248.754L100.67 201.065Z" fill="#3F3D56"/>
<path d="M137.643 248.754C137.643 222.099 156.096 200.53 178.901 200.53L137.643 248.754Z" fill="#4F8A8B"/>
<path d="M114.066 203.455C114.066 228.493 124.611 248.754 137.643 248.754L114.066 203.455Z" fill="#4F8A8B"/>
<path d="M137.643 248.754C137.643 214.695 158.972 187.134 185.331 187.134L137.643 248.754Z" fill="#3F3D56"/>
<path d="M129.865 249.091C129.865 249.091 135.108 248.929 136.688 247.804C138.268 246.679 144.754 245.335 145.146 247.14C145.538 248.944 153.025 256.115 147.106 256.163C141.186 256.21 133.351 255.241 131.774 254.28C130.197 253.319 129.865 249.091 129.865 249.091Z" fill="#A8A8A8"/>
<path opacity="0.2" d="M147.211 255.535C141.292 255.582 133.457 254.613 131.879 253.652C130.678 252.92 130.2 250.295 130.04 249.084C129.929 249.089 129.865 249.091 129.865 249.091C129.865 249.091 130.197 253.319 131.774 254.28C133.351 255.241 141.186 256.211 147.106 256.163C148.814 256.149 149.405 255.541 149.372 254.641C149.135 255.185 148.483 255.524 147.211 255.535Z" fill="black"/>
</g>
<defs>
<clipPath id="clip0">
<rect width="440" height="266.942" fill="white"/>
</clipPath>
</defs>
</svg>
