<svg width="627" height="497" viewBox="0 0 627 497" fill="none" xmlns="http://www.w3.org/2000/svg">
<g clip-path="url(#clip0)">
<path d="M200.306 284.552L209.612 289.9C210.554 290.441 211.602 290.77 212.684 290.864C213.766 290.959 214.855 290.816 215.876 290.446C216.897 290.076 217.825 289.488 218.596 288.722C219.366 287.957 219.96 287.032 220.337 286.013C220.742 284.917 220.884 283.741 220.752 282.58C220.619 281.418 220.216 280.304 219.574 279.327C218.933 278.35 218.071 277.537 217.058 276.954C216.045 276.371 214.909 276.034 213.742 275.969L202.473 275.35L168.525 265.074L163.052 244.582L148.74 252.621L158.581 275.918L200.306 284.552Z" fill="#FFB8B8"/>
<path d="M155.936 178.192C153.783 180.633 154.172 183.569 155.74 185.952C157.308 188.335 159.917 190.318 162.2 192.421C163.667 193.772 165.024 195.205 165.681 196.831C166.043 197.662 166.162 198.578 166.023 199.474C165.884 200.37 165.493 201.208 164.897 201.89C163.402 203.659 160.616 204.857 157.899 205.883C150.128 208.799 142.109 211.007 133.941 212.481C140.822 204.44 144.267 195.385 143.762 186.663C143.656 184.832 143.384 182.985 144.024 181.15C144.463 180.049 145.157 179.067 146.049 178.287C146.941 177.506 148.006 176.948 149.156 176.659C151.891 175.874 155.494 176.651 155.913 178.443" fill="#2F2E41"/>
<path d="M96.9839 436.216L106.831 436.644L126.266 346.872L109.399 347.596L96.9839 436.216Z" fill="#FFB8B8"/>
<path d="M195.45 416.951L187.315 421.232L136.434 345.742L152.639 338.606L195.45 416.951Z" fill="#FFB8B8"/>
<path d="M138.735 206.45C147.337 206.45 154.31 199.477 154.31 190.875C154.31 182.273 147.337 175.3 138.735 175.3C130.133 175.3 123.16 182.273 123.16 190.875C123.16 199.477 130.133 206.45 138.735 206.45Z" fill="#FFB8B8"/>
<path d="M130.805 199.041C130.805 199.041 125.239 210.6 117.533 210.172C117.533 210.172 102.978 204.179 98.2683 220.447L93.131 233.29L161.201 244.849C161.201 244.849 157.348 221.303 148.358 220.875C148.358 220.875 138.083 220.019 139.367 216.166C140.651 212.313 145.361 203.322 145.361 203.322L130.805 199.041Z" fill="#FFB8B8"/>
<path d="M153.495 258.121L143.22 280.383L151.688 316.365L192.928 393.762C192.928 393.762 173.935 410.801 169.201 413.534C165.094 415.905 130.904 351.643 129.655 338.398C129.243 334.026 121.746 422.573 121.746 422.573C121.746 422.573 93.4826 417.909 85.5902 416.359C85.5902 416.359 91.2764 376.084 94.6292 338.398C97.2136 309.348 94.8636 283.022 109.399 270.536L108.115 245.705L142.364 244.421L153.495 258.121Z" fill="#2F2E41"/>
<path d="M100.299 452.728L116.019 455.01C117.237 455.464 118.581 455.448 119.788 454.966C120.995 454.483 121.979 453.569 122.549 452.4C123.011 451.451 123.176 450.384 123.021 449.339C122.866 448.295 122.398 447.322 121.68 446.548L115.007 439.362L110.205 429C107.333 426.067 105.37 427.104 104.272 431.924L96.5959 429.513L94.5831 443.043C94.2819 445.068 94.6853 447.135 95.7258 448.898C96.7664 450.661 98.3809 452.013 100.299 452.728Z" fill="#2F2E41"/>
<path d="M189.899 438.57L205.784 438.515C207.056 438.784 208.382 438.571 209.505 437.916C210.628 437.261 211.467 436.212 211.858 434.972C212.176 433.965 212.182 432.886 211.875 431.875C211.568 430.865 210.962 429.971 210.138 429.312L202.481 423.186L196.206 413.644C192.934 411.165 191.145 412.48 190.768 417.408L182.821 416.153V429.832C182.821 431.879 183.524 433.864 184.812 435.455C186.101 437.046 187.897 438.145 189.899 438.57Z" fill="#2F2E41"/>
<path d="M130.868 166.933C128.222 165.777 125.074 166.23 122.52 167.576C119.966 168.922 117.925 171.069 116.139 173.337C109.989 181.187 106.402 190.738 105.866 200.696C105.727 203.418 105.858 206.295 107.275 208.623C108.832 211.181 111.682 212.65 114.506 213.65C123.971 216.948 134.356 216.377 143.403 212.06C138.646 208.203 134.245 203.927 130.252 199.284C129.503 198.414 128.721 197.296 129.101 196.214C129.341 195.687 129.713 195.231 130.18 194.889L139.35 186.926L139.119 190.148C140.943 190.041 142.695 189.402 144.16 188.311C145.625 187.219 146.737 185.722 147.361 184.005C146.918 184.897 147.763 185.993 148.738 186.194C149.714 186.394 150.701 185.992 151.616 185.599C153.835 184.644 156.245 183.507 157.229 181.301C157.539 180.524 157.687 179.691 157.665 178.854C157.643 178.018 157.45 177.194 157.099 176.434C156.387 174.918 155.371 173.563 154.115 172.455C151.03 169.608 147.278 167.584 143.204 166.571C139.131 165.559 134.867 165.589 130.809 166.661" fill="#2F2E41"/>
<path d="M127.756 282.324L134.595 290.596C135.287 291.433 136.153 292.109 137.133 292.577C138.114 293.045 139.184 293.293 140.27 293.305C141.356 293.316 142.431 293.091 143.421 292.644C144.411 292.198 145.292 291.541 146.002 290.719C146.766 289.834 147.311 288.782 147.595 287.648C147.878 286.514 147.891 285.33 147.633 284.19C147.375 283.05 146.853 281.986 146.109 281.085C145.365 280.183 144.42 279.469 143.35 279L133.014 274.466L104.828 252.935L106.891 231.825L90.6688 234.333L91.7114 259.602L127.756 282.324Z" fill="#FFB8B8"/>
<path d="M170.191 263.686C170.191 263.686 163.525 239.272 160.008 239.278C156.492 239.284 151.782 238.856 151.782 238.856C151.782 238.856 146.217 222.587 117.533 227.725C88.8498 232.862 101.265 223.015 93.1309 226.869C84.9968 230.722 82 257.693 82 257.693C82 257.693 126.096 243.137 135.514 251.271C140.923 256.001 146.805 260.162 153.067 263.686C153.067 263.686 148.786 274.389 170.191 263.686Z" fill="#2F2E41"/>
<path d="M323.059 437.231H150.188V438.361H323.059V437.231Z" fill="#3F3D56"/>
<path d="M455.819 242.328C513.54 242.328 560.332 195.536 560.332 137.815C560.332 80.0937 513.54 33.3016 455.819 33.3016C398.098 33.3016 351.306 80.0937 351.306 137.815C351.306 195.536 398.098 242.328 455.819 242.328Z" fill="#E6E6E6"/>
<path d="M436.046 79.6263H263.176V80.7562H436.046V79.6263Z" fill="#3F3D56"/>
<path d="M602.702 110.698H263.176V111.828H602.702V110.698Z" fill="#3F3D56"/>
<path d="M498.189 221.99C440.249 221.99 393.111 174.852 393.111 116.912C393.111 58.9719 440.249 11.834 498.189 11.834C556.129 11.834 603.267 58.9719 603.267 116.912C603.267 174.852 556.129 221.99 498.189 221.99ZM498.189 12.9638C440.872 12.9638 394.241 59.5948 394.241 116.912C394.241 174.229 440.872 220.86 498.189 220.86C555.506 220.86 602.137 174.229 602.137 116.912C602.137 59.5948 555.506 12.9638 498.189 12.9638Z" fill="#3F3D56"/>
<path d="M488.495 27.592C496.114 27.592 502.29 21.4153 502.29 13.796C502.29 6.17668 496.114 0 488.495 0C480.875 0 474.698 6.17668 474.698 13.796C474.698 21.4153 480.875 27.592 488.495 27.592Z" fill="#4F8A8B"/>
<path d="M393.505 118.445C398.435 118.445 402.432 114.448 402.432 109.518C402.432 104.588 398.435 100.591 393.505 100.591C388.575 100.591 384.578 104.588 384.578 109.518C384.578 114.448 388.575 118.445 393.505 118.445Z" fill="#FF6584"/>
<path d="M606.613 130.052C617.872 130.052 627 120.924 627 109.664C627 98.405 617.872 89.2774 606.613 89.2774C595.353 89.2774 586.226 98.405 586.226 109.664C586.226 120.924 595.353 130.052 606.613 130.052Z" fill="#4F8A8B"/>
<path d="M320.044 190.106H258.184V191.236H320.044C323.089 191.236 326.01 192.445 328.164 194.599C330.317 196.753 331.527 199.673 331.527 202.719C331.527 205.764 330.317 208.685 328.164 210.839C326.01 212.992 323.089 214.202 320.044 214.202H226.439C223.394 214.202 220.473 212.992 218.319 210.839C216.166 208.685 214.956 205.764 214.956 202.719C214.956 199.673 216.166 196.753 218.319 194.599C220.473 192.445 223.394 191.236 226.439 191.236H229.937V190.106H226.439C223.094 190.106 219.886 191.435 217.52 193.8C215.155 196.166 213.826 199.374 213.826 202.719C213.826 206.064 215.155 209.272 217.52 211.638C219.886 214.003 223.094 215.332 226.439 215.332H320.044C323.389 215.332 326.597 214.003 328.963 211.638C331.328 209.272 332.657 206.064 332.657 202.719C332.657 199.374 331.328 196.166 328.963 193.8C326.597 191.435 323.389 190.106 320.044 190.106Z" fill="#3F3D56"/>
<path d="M320.044 229.086H258.184V230.216H320.044C323.089 230.216 326.01 231.426 328.164 233.58C330.317 235.733 331.527 238.654 331.527 241.7C331.527 244.745 330.317 247.666 328.164 249.819C326.01 251.973 323.089 253.183 320.044 253.183H226.439C223.394 253.183 220.473 251.973 218.319 249.819C216.166 247.666 214.956 244.745 214.956 241.7C214.956 238.654 216.166 235.733 218.319 233.58C220.473 231.426 223.394 230.216 226.439 230.216H229.937V229.086H226.439C223.094 229.086 219.886 230.415 217.52 232.781C215.155 235.146 213.826 238.354 213.826 241.7C213.826 245.045 215.155 248.253 217.52 250.618C219.886 252.984 223.094 254.313 226.439 254.313H320.044C323.389 254.313 326.597 252.984 328.963 250.618C331.328 248.253 332.657 245.045 332.657 241.7C332.657 238.354 331.328 235.146 328.963 232.781C326.597 230.415 323.389 229.086 320.044 229.086Z" fill="#3F3D56"/>
<path d="M320.044 268.067H258.184V269.197H320.044C323.089 269.197 326.01 270.407 328.164 272.56C330.317 274.714 331.527 277.635 331.527 280.68C331.527 283.726 330.317 286.646 328.164 288.8C326.01 290.954 323.089 292.163 320.044 292.163H226.439C223.394 292.163 220.473 290.954 218.319 288.8C216.166 286.646 214.956 283.726 214.956 280.68C214.956 277.635 216.166 274.714 218.319 272.56C220.473 270.407 223.394 269.197 226.439 269.197H229.937V268.067H226.439C223.094 268.067 219.886 269.396 217.52 271.761C215.155 274.127 213.826 277.335 213.826 280.68C213.826 284.025 215.155 287.234 217.52 289.599C219.886 291.964 223.094 293.293 226.439 293.293H320.044C323.389 293.293 326.597 291.964 328.963 289.599C331.328 287.234 332.657 284.025 332.657 280.68C332.657 277.335 331.328 274.127 328.963 271.761C326.597 269.396 323.389 268.067 320.044 268.067Z" fill="#3F3D56"/>
<path d="M236.919 187.121C236.038 187.136 235.198 187.496 234.58 188.124C233.962 188.753 233.616 189.599 233.616 190.48C233.616 191.361 233.962 192.207 234.58 192.836C235.198 193.464 236.038 193.824 236.919 193.839H251.656C252.545 193.851 253.403 193.51 254.041 192.89C254.679 192.271 255.045 191.424 255.06 190.535C255.075 189.646 254.736 188.787 254.119 188.147C253.501 187.507 252.656 187.138 251.766 187.121C251.73 187.12 251.693 187.12 251.656 187.121H236.919Z" fill="#4F8A8B"/>
<path d="M236.919 226.666C236.038 226.681 235.198 227.041 234.58 227.67C233.962 228.298 233.616 229.144 233.616 230.025C233.616 230.907 233.962 231.753 234.58 232.381C235.198 233.009 236.038 233.37 236.919 233.385H251.656C252.545 233.396 253.403 233.055 254.041 232.436C254.679 231.817 255.045 230.97 255.06 230.08C255.075 229.191 254.736 228.333 254.119 227.693C253.501 227.053 252.656 226.684 251.766 226.666C251.73 226.666 251.693 226.666 251.656 226.666H236.919Z" fill="#FF6584"/>
<path d="M236.919 265.082C236.038 265.097 235.198 265.457 234.58 266.085C233.962 266.714 233.615 267.56 233.615 268.441C233.615 269.323 233.962 270.169 234.58 270.797C235.198 271.426 236.038 271.786 236.919 271.8H251.656C252.546 271.814 253.406 271.474 254.045 270.854C254.685 270.235 255.052 269.387 255.067 268.496C255.081 267.606 254.742 266.746 254.123 266.106C253.504 265.466 252.657 265.098 251.766 265.082C251.73 265.081 251.693 265.081 251.656 265.082H236.919Z" fill="#3F3D56"/>
<path d="M231.074 199.36C230.193 199.374 229.353 199.735 228.735 200.363C228.117 200.991 227.771 201.838 227.771 202.719C227.771 203.6 228.117 204.446 228.735 205.075C229.353 205.703 230.193 206.063 231.074 206.078H315.298C315.74 206.086 316.179 206.008 316.59 205.846C317.002 205.684 317.377 205.443 317.695 205.136C318.013 204.829 318.267 204.463 318.443 204.057C318.619 203.652 318.714 203.216 318.721 202.774C318.728 202.332 318.648 201.893 318.486 201.483C318.323 201.072 318.081 200.697 317.773 200.38C317.465 200.063 317.098 199.809 316.692 199.634C316.287 199.459 315.85 199.366 315.409 199.36C315.372 199.359 315.335 199.359 315.298 199.36H231.074Z" fill="#E6E6E6"/>
<path d="M231.074 238.34C230.193 238.355 229.353 238.715 228.735 239.344C228.117 239.972 227.771 240.818 227.771 241.7C227.771 242.581 228.117 243.427 228.735 244.055C229.353 244.684 230.193 245.044 231.074 245.059H315.298C315.74 245.067 316.179 244.988 316.59 244.827C317.002 244.665 317.377 244.424 317.695 244.117C318.013 243.81 318.267 243.443 318.443 243.038C318.619 242.633 318.714 242.197 318.721 241.755C318.728 241.313 318.648 240.874 318.486 240.463C318.323 240.052 318.081 239.678 317.773 239.36C317.465 239.043 317.098 238.79 316.692 238.615C316.287 238.44 315.85 238.347 315.409 238.34C315.372 238.34 315.335 238.34 315.298 238.34H231.074Z" fill="#E6E6E6"/>
<path d="M231.074 277.321C230.193 277.336 229.353 277.696 228.735 278.324C228.117 278.953 227.771 279.799 227.771 280.68C227.771 281.561 228.117 282.408 228.735 283.036C229.353 283.664 230.193 284.025 231.074 284.039H315.298C315.74 284.048 316.179 283.969 316.59 283.807C317.002 283.645 317.377 283.404 317.695 283.097C318.013 282.791 318.267 282.424 318.443 282.019C318.619 281.613 318.714 281.177 318.721 280.735C318.728 280.294 318.648 279.855 318.486 279.444C318.323 279.033 318.081 278.658 317.773 278.341C317.465 278.024 317.098 277.77 316.692 277.595C316.287 277.42 315.85 277.327 315.409 277.321C315.372 277.32 315.335 277.32 315.298 277.321H231.074Z" fill="#E6E6E6"/>
<path d="M316.646 403.508C315.768 397.847 314.055 392.347 311.563 387.189L311.199 386.437L308.501 389.429L310.5 384.973L310.37 384.714C308.605 381.222 306.65 377.829 304.513 374.552L304.116 373.945L303.587 374.531L303.958 373.706L303.772 373.427C301.125 369.457 299.091 366.945 299.071 366.92L298.496 366.213L298.126 367.056C298.058 367.211 291.336 382.701 290.445 398.007L290.431 398.246L294.956 403.714L290.342 400.818L290.35 401.869C290.364 403.668 290.486 405.464 290.716 407.249C290.919 408.783 291.159 410.282 291.434 411.744C291.87 411.757 292.294 411.89 292.661 412.126C292.342 410.493 292.067 408.814 291.836 407.089C291.658 405.713 291.546 404.314 291.501 402.92L300.425 408.523L291.587 397.84C292.392 384.899 297.386 371.861 298.788 368.42C299.541 369.396 300.96 371.29 302.659 373.821L299.572 380.703L303.973 375.823C305.881 378.793 307.638 381.858 309.239 385.004L304.485 395.601L310.912 388.475C313.157 393.302 314.711 398.422 315.529 403.683C316.653 412.18 316.434 420.343 314.91 426.668C313.451 432.727 310.878 436.451 307.852 436.886C307.23 436.972 306.596 436.934 305.988 436.775C305.5 437.122 304.913 437.301 304.315 437.286H304.15C305.089 437.807 306.141 438.089 307.214 438.108C307.48 438.108 307.744 438.089 308.007 438.052C311.564 437.541 314.405 433.599 316.006 426.955C317.564 420.486 317.792 412.164 316.646 403.508Z" fill="#3F3D56"/>
<path d="M306.69 437.662C302.036 437.662 295.327 435.102 288.673 430.442C287.693 429.751 286.758 428.999 285.872 428.191L285.127 427.51L287.945 426.698L284.193 426.561L284.034 426.395C277.001 419.029 272.624 408.624 272.58 408.52L272.238 407.698L273.128 407.738C273.216 407.742 275.331 407.842 278.508 408.293L278.706 408.321V408.319L279.403 408.425C281.998 408.819 284.569 409.36 287.103 410.043L287.374 410.117L288.219 412.199L288.091 410.331L288.866 410.555C292.543 411.616 296.035 413.235 299.22 415.355C309.34 422.442 314.94 431.299 311.98 435.526C310.968 436.971 309.106 437.661 306.69 437.662ZM287.401 428.031C288.019 428.554 288.663 429.052 289.322 429.517C298.591 436.008 308.543 438.463 311.054 434.878C313.565 431.293 307.854 422.78 298.583 416.289C295.723 414.386 292.608 412.9 289.329 411.874L289.83 419.171L286.538 411.062C284.37 410.486 282.151 410.013 279.93 409.651L280.294 414.948L278.028 409.366C276.272 409.125 274.857 408.994 273.996 408.928C275.17 411.505 279.048 419.464 284.694 425.449L295.049 425.828L287.401 428.031Z" fill="#3F3D56"/>
</g>
<path d="M63.537 15.0833C62.129 15.085 60.7791 15.6727 59.7835 16.7174C58.7878 17.7622 58.2278 19.1787 58.2262 20.6561V122.487C58.2278 123.964 58.7878 125.381 59.7835 126.425C60.7791 127.47 62.129 128.058 63.537 128.06H65.9511C67.3591 128.058 68.709 127.47 69.7046 126.425C70.7003 125.381 71.2603 123.964 71.2619 122.487V20.6561C71.2603 19.1787 70.7003 17.7622 69.7046 16.7174C68.709 15.6727 67.3591 15.085 65.9511 15.0833H63.537Z" fill="#E6E6E6"/>
<path d="M63.9715 17.6905C63.1395 17.6915 62.3418 18.0366 61.7535 18.6503C61.1652 19.2639 60.8342 20.0958 60.8333 20.9636V122.179C60.8342 123.047 61.1652 123.879 61.7535 124.493C62.3418 125.106 63.1395 125.451 63.9715 125.452H66.3855C67.2175 125.451 68.0152 125.106 68.6035 124.493C69.1918 123.879 69.5228 123.047 69.5237 122.179V20.9636C69.5228 20.0958 69.1918 19.2639 68.6035 18.6503C68.0152 18.0366 67.2175 17.6915 66.3855 17.6905H63.9715Z" fill="white"/>
<path d="M104.736 15.0833C103.234 15.085 101.795 15.6727 100.732 16.7174C99.6705 17.7622 99.0731 19.1787 99.0714 20.6561V122.487C99.0731 123.964 99.6705 125.381 100.732 126.425C101.795 127.47 103.234 128.058 104.736 128.06H107.311C108.813 128.058 110.253 127.47 111.315 126.425C112.377 125.381 112.974 123.964 112.976 122.487V20.6561C112.974 19.1787 112.377 17.7622 111.315 16.7174C110.253 15.6727 108.813 15.085 107.311 15.0833H104.736Z" fill="#E6E6E6"/>
<path d="M105.131 17.6905C104.215 17.6915 103.338 18.0366 102.691 18.6503C102.044 19.2639 101.68 20.0958 101.679 20.9636V122.179C101.68 123.047 102.044 123.879 102.691 124.493C103.338 125.106 104.215 125.451 105.131 125.452H107.786C108.701 125.451 109.579 125.106 110.226 124.493C110.873 123.879 111.237 123.047 111.238 122.179V20.9636C111.237 20.0958 110.873 19.2639 110.226 18.6503C109.579 18.0366 108.701 17.6915 107.786 17.6905H105.131Z" fill="white"/>
<path d="M146.451 15.0833C144.949 15.085 143.509 15.6727 142.447 16.7174C141.385 17.7622 140.787 19.1787 140.786 20.6561V122.487C140.787 123.964 141.385 125.381 142.447 126.425C143.509 127.47 144.949 128.058 146.451 128.06H149.026C150.528 128.058 151.967 127.47 153.029 126.425C154.091 125.381 154.689 123.964 154.691 122.487V20.6561C154.689 19.1787 154.091 17.7622 153.029 16.7174C151.967 15.6727 150.528 15.085 149.026 15.0833H146.451Z" fill="#E6E6E6"/>
<path d="M146.845 17.6905C145.93 17.6915 145.052 18.0366 144.405 18.6503C143.758 19.2639 143.394 20.0958 143.393 20.9636V122.179C143.394 123.047 143.758 123.879 144.405 124.493C145.052 125.106 145.93 125.451 146.845 125.452H149.5C150.416 125.451 151.293 125.106 151.94 124.493C152.587 123.879 152.951 123.047 152.952 122.179V20.9636C152.951 20.0958 152.587 19.2639 151.94 18.6503C151.293 18.0366 150.416 17.6915 149.5 17.6905H146.845Z" fill="white"/>
<path d="M188.165 15.0833C186.663 15.085 185.223 15.6727 184.161 16.7174C183.099 17.7622 182.502 19.1787 182.5 20.6561V122.487C182.502 123.964 183.099 125.381 184.161 126.425C185.223 127.47 186.663 128.058 188.165 128.06H190.74C192.242 128.058 193.682 127.47 194.744 126.425C195.806 125.381 196.403 123.964 196.405 122.487V20.6561C196.403 19.1787 195.806 17.7622 194.744 16.7174C193.682 15.6727 192.242 15.085 190.74 15.0833H188.165Z" fill="#E6E6E6"/>
<path d="M188.245 17.6905C187.413 17.6915 186.616 18.0366 186.027 18.6503C185.439 19.2639 185.108 20.0958 185.107 20.9636V122.179C185.108 123.047 185.439 123.879 186.027 124.493C186.616 125.106 187.413 125.451 188.245 125.452H190.659C191.491 125.451 192.289 125.106 192.877 124.493C193.466 123.879 193.797 123.047 193.798 122.179V20.9636C193.797 20.0958 193.466 19.2639 192.877 18.6503C192.289 18.0366 191.491 17.6915 190.659 17.6905H188.245Z" fill="white"/>
<path d="M229.879 15.0833C228.377 15.085 226.937 15.6727 225.875 16.7174C224.813 17.7622 224.216 19.1787 224.214 20.6561V122.487C224.216 123.964 224.813 125.381 225.875 126.425C226.937 127.47 228.377 128.058 229.879 128.06H232.454C233.956 128.058 235.396 127.47 236.458 126.425C237.52 125.381 238.117 123.964 238.119 122.487V20.6561C238.117 19.1787 237.52 17.7622 236.458 16.7174C235.396 15.6727 233.956 15.085 232.454 15.0833H229.879Z" fill="#E6E6E6"/>
<path d="M229.96 17.6905C229.128 17.6915 228.33 18.0366 227.742 18.6503C227.153 19.2639 226.822 20.0958 226.821 20.9636V122.179C226.822 123.047 227.153 123.879 227.742 124.493C228.33 125.106 229.128 125.451 229.96 125.452H232.374C233.206 125.451 234.003 125.106 234.592 124.493C235.18 123.879 235.511 123.047 235.512 122.179V20.9636C235.511 20.0958 235.18 19.2639 234.592 18.6503C234.003 18.0366 233.206 17.6915 232.374 17.6905H229.96Z" fill="white"/>
<path d="M73.079 48.1071H57.2781C55.9166 48.1056 54.6113 47.5525 53.6486 46.5691C52.6858 45.5858 52.1443 44.2525 52.1428 42.8618V42.0548C52.1443 40.6642 52.6858 39.3309 53.6486 38.3475C54.6113 37.3642 55.9166 36.8111 57.2781 36.8095H73.079C74.4405 36.8111 75.7458 37.3642 76.7085 38.3475C77.6712 39.3309 78.2127 40.6642 78.2143 42.0548V42.8618C78.2127 44.2525 77.6712 45.5858 76.7085 46.5691C75.7458 47.5525 74.4405 48.1056 73.079 48.1071Z" fill="#EA907A"/>
<path d="M115.662 64.6191H99.8615C98.5 64.6175 97.1947 64.0644 96.2319 63.081C95.2692 62.0977 94.7277 60.7644 94.7262 59.3737V58.5668C94.7277 57.1761 95.2692 55.8428 96.2319 54.8595C97.1947 53.8761 98.5 53.323 99.8615 53.3214H115.662C117.024 53.323 118.329 53.8761 119.292 54.8595C120.255 55.8428 120.796 57.1761 120.798 58.5668V59.3737C120.796 60.7644 120.255 62.0977 119.292 63.081C118.329 64.0644 117.024 64.6175 115.662 64.6191Z" fill="#EA907A"/>
<path d="M155.639 97.6429H139.838C138.476 97.6413 137.171 97.0882 136.208 96.1048C135.245 95.1215 134.704 93.7882 134.702 92.3975V91.5906C134.704 90.1999 135.245 88.8666 136.208 87.8833C137.171 86.8999 138.476 86.3468 139.838 86.3452H155.639C157 86.3468 158.305 86.8999 159.268 87.8833C160.231 88.8666 160.772 90.1999 160.774 91.5906V92.3975C160.772 93.7882 160.231 95.1215 159.268 96.1048C158.305 97.0882 157 97.6413 155.639 97.6429Z" fill="#EA907A"/>
<path d="M197.353 38.5476H181.552C180.191 38.546 178.885 37.9503 177.923 36.8913C176.96 35.8323 176.418 34.3965 176.417 32.8988V32.0298C176.418 30.5321 176.96 29.0963 177.923 28.0373C178.885 26.9783 180.191 26.3826 181.552 26.381H197.353C198.714 26.3826 200.02 26.9783 200.982 28.0373C201.945 29.0963 202.487 30.5321 202.488 32.0298V32.8988C202.487 34.3965 201.945 35.8323 200.982 36.8913C200.02 37.9503 198.714 38.546 197.353 38.5476Z" fill="#EA907A"/>
<path d="M239.067 77.6548H223.266C221.905 77.6532 220.599 77.1001 219.637 76.1167C218.674 75.1334 218.132 73.8001 218.131 72.4094V71.6025C218.132 70.2118 218.674 68.8785 219.637 67.8952C220.599 66.9118 221.905 66.3587 223.266 66.3571H239.067C240.429 66.3587 241.734 66.9118 242.697 67.8952C243.659 68.8785 244.201 70.2118 244.202 71.6025V72.4094C244.201 73.8001 243.659 75.1334 242.697 76.1167C241.734 77.1001 240.429 77.6532 239.067 77.6548Z" fill="#EA907A"/>
<path d="M64.7441 155C68.3438 155 71.2619 151.887 71.2619 148.048C71.2619 144.208 68.3438 141.095 64.7441 141.095C61.1443 141.095 58.2262 144.208 58.2262 148.048C58.2262 151.887 61.1443 155 64.7441 155Z" fill="#E6E6E6"/>
<path d="M106.458 155C110.058 155 112.976 151.887 112.976 148.048C112.976 144.208 110.058 141.095 106.458 141.095C102.859 141.095 99.9404 144.208 99.9404 148.048C99.9404 151.887 102.859 155 106.458 155Z" fill="#E6E6E6"/>
<path d="M148.173 155C151.772 155 154.691 151.887 154.691 148.048C154.691 144.208 151.772 141.095 148.173 141.095C144.573 141.095 141.655 144.208 141.655 148.048C141.655 151.887 144.573 155 148.173 155Z" fill="#E6E6E6"/>
<path d="M189.887 155C193.487 155 196.405 151.887 196.405 148.048C196.405 144.208 193.487 141.095 189.887 141.095C186.287 141.095 183.369 144.208 183.369 148.048C183.369 151.887 186.287 155 189.887 155Z" fill="#E6E6E6"/>
<path d="M231.167 155C235.006 155 238.119 151.887 238.119 148.048C238.119 144.208 235.006 141.095 231.167 141.095C227.327 141.095 224.214 144.208 224.214 148.048C224.214 151.887 227.327 155 231.167 155Z" fill="#E6E6E6"/>
<path d="M14.7738 9C11.8518 9 8.99546 9.86647 6.56592 11.4898C4.13638 13.1132 2.24279 15.4206 1.12459 18.1201C0.00640135 20.8197 -0.28617 23.7902 0.283882 26.656C0.853934 29.5219 2.261 32.1543 4.32716 34.2205C6.39331 36.2866 9.02575 37.6937 11.8916 38.2637C14.7574 38.8338 17.7279 38.5412 20.4275 37.423C23.1271 36.3048 25.4344 34.4112 27.0578 31.9817C28.6812 29.5521 29.5476 26.6958 29.5476 23.7738C29.5476 21.8337 29.1655 19.9125 28.423 18.1201C27.6806 16.3277 26.5923 14.699 25.2205 13.3271C23.8486 11.9553 22.2199 10.867 20.4275 10.1246C18.6351 9.38214 16.7139 9 14.7738 9ZM14.7738 36.365C12.2835 36.365 9.84912 35.6265 7.77852 34.243C5.70791 32.8595 4.09407 30.893 3.14107 28.5922C2.18807 26.2915 1.93873 23.7598 2.42456 21.3174C2.9104 18.8749 4.10959 16.6314 5.8705 14.8705C7.63141 13.1096 9.87494 11.9104 12.3174 11.4245C14.7598 10.9387 17.2915 11.1881 19.5923 12.1411C21.893 13.0941 23.8595 14.7079 25.243 16.7785C26.6265 18.8491 27.365 21.2835 27.365 23.7738C27.365 25.4273 27.0393 27.0646 26.4066 28.5922C25.7738 30.1199 24.8463 31.5079 23.6771 32.6771C22.5079 33.8463 21.1199 34.7738 19.5923 35.4066C18.0646 36.0393 16.4273 36.365 14.7738 36.365Z" fill="#E6E6E6"/>
<path d="M13.8403 28.119C13.7346 28.1191 13.63 28.0998 13.5323 28.0623C13.4347 28.0249 13.346 27.97 13.2713 27.9008L8.92609 23.8784C8.85137 23.8092 8.79211 23.7271 8.75168 23.6367C8.71124 23.5464 8.69043 23.4495 8.69043 23.3517C8.69043 23.2539 8.71124 23.157 8.75168 23.0667C8.79211 22.9763 8.85138 22.8942 8.9261 22.825C9.00081 22.7559 9.0895 22.701 9.18712 22.6636C9.28474 22.6262 9.38936 22.6069 9.49502 22.6069C9.60068 22.6069 9.70531 22.6262 9.80293 22.6636C9.90054 22.701 9.98924 22.7559 10.064 22.825L13.746 26.2335L20.2725 17.9949C20.3987 17.8356 20.5881 17.7292 20.7991 17.6991C21.01 17.6691 21.2252 17.7179 21.3973 17.8347C21.5694 17.9515 21.6843 18.1269 21.7168 18.3221C21.7492 18.5174 21.6966 18.7166 21.5703 18.8759L14.4892 27.8147C14.4206 27.9013 14.3325 27.9731 14.2311 28.0253C14.1297 28.0775 14.0173 28.1088 13.9016 28.117C13.8811 28.1185 13.8605 28.119 13.8403 28.119Z" fill="#6C63FF"/>
<path d="M515.55 327.432L511.213 331.631L516.974 346.376L525.012 330.029L538.177 255.812L517.93 255.258L515.55 327.432Z" fill="#9F616A"/>
<path d="M483.347 483.053H472.349L463.795 388.216H485.18L483.347 483.053Z" fill="#9F616A"/>
<path d="M523.407 483.053H512.887L504.705 388.216H525.16L523.407 483.053Z" fill="#9F616A"/>
<path d="M515.456 496.15L499.823 496.066C498.429 495.364 497.343 494.167 496.773 492.706C496.204 491.245 496.191 489.622 496.738 488.152C497.127 487.108 497.782 486.186 498.636 485.477C499.491 484.769 500.515 484.299 501.607 484.116L504.56 483.62L507.133 480.321C507.865 479.362 508.924 478.708 510.105 478.487C511.286 478.266 512.507 478.492 513.532 479.122C516.001 480.701 519.424 481.226 523.645 480.874L526.93 488.955C527.581 493.328 524.61 496.212 520.275 496.901C518.63 497.163 516.945 496.9 515.456 496.15Z" fill="#2F2E41"/>
<path d="M474.546 496.157L458.913 496.074C457.519 495.377 456.433 494.189 455.863 492.739C455.294 491.289 455.281 489.68 455.828 488.221C456.217 487.186 456.871 486.27 457.726 485.567C458.581 484.864 459.605 484.398 460.697 484.217L463.65 483.725L466.511 480.085C467.205 479.209 468.204 478.628 469.309 478.457C470.414 478.286 471.542 478.538 472.469 479.163C474.948 480.806 478.426 481.357 482.735 480.999L486.02 489.018C486.671 493.356 483.7 496.218 479.365 496.902C477.72 497.162 476.035 496.901 474.546 496.157Z" fill="#2F2E41"/>
<path d="M486.109 204.121C494.839 204.121 501.916 196.836 501.916 187.85C501.916 178.863 494.839 171.579 486.109 171.579C477.38 171.579 470.303 178.863 470.303 187.85C470.303 196.836 477.38 204.121 486.109 204.121Z" fill="#9F616A"/>
<path d="M510.284 219.059L483.01 220.857C483.107 212.325 482.722 204.597 480.531 199.885L499.746 193.893C499.931 201.406 504.007 209.943 510.284 219.059Z" fill="#9F616A"/>
<path d="M526.118 336.149L457.532 330.741C466.683 300.543 463.819 260.999 454.497 231.352C454.497 227.89 455.558 224.509 457.54 221.657C459.522 218.805 462.332 216.615 465.598 215.376L483.024 208.77L504.874 211.173L523.299 220.293C526.141 221.699 528.523 223.874 530.168 226.566C531.813 229.257 532.655 232.355 532.595 235.5C525.67 262.917 524.836 298.172 526.118 336.149Z" fill="#1C7879"/>
<path d="M474.022 261.767L444.27 256.395L446.83 236.088C447.454 231.145 449.496 226.503 452.699 222.748C455.903 218.993 460.122 216.294 464.825 214.994L470.522 213.419L474.022 261.767Z" fill="#1C7879"/>
<path d="M456.441 330.357L459.991 335.142L454.666 350.096L446.974 331.553L445.199 256.188L464.724 258.581L456.441 330.357Z" fill="#9F616A"/>
<path d="M508.424 263.626L539.107 258.151L536.466 237.454C535.823 232.416 533.717 227.684 530.413 223.857C527.11 220.03 522.758 217.279 517.909 215.954L512.034 214.348L508.424 263.626Z" fill="#1C7879"/>
<path d="M527.949 391.661L502.792 392.865L495.479 357.339L486.599 390.457L460.003 391.059L454.686 348.267C454.276 344.964 454.535 341.612 455.449 338.411C456.362 335.211 457.911 332.228 460.003 329.64L526.145 332.651L527.949 391.661Z" fill="#2F2E41"/>
<path d="M487.584 205.98L499.814 203.643L507.09 191.1C508.856 188.056 509.619 184.526 509.272 181.017C508.924 177.508 507.483 174.2 505.155 171.569C503.341 169.519 501.054 167.954 498.495 167.011C495.937 166.069 493.188 165.779 490.492 166.168L474.641 168.453C473.274 168.65 471.959 169.118 470.773 169.83C469.586 170.542 468.55 171.483 467.726 172.601C466.901 173.718 466.304 174.99 465.968 176.341C465.633 177.692 465.565 179.098 465.77 180.475L476.447 182.308L487.584 205.98Z" fill="#2F2E41"/>
<path d="M480.066 195.753C481.863 195.753 483.32 194.088 483.32 192.034C483.32 189.98 481.863 188.315 480.066 188.315C478.269 188.315 476.812 189.98 476.812 192.034C476.812 194.088 478.269 195.753 480.066 195.753Z" fill="#9F616A"/>
<defs>
<clipPath id="clip0">
<rect width="545" height="455.34" fill="white" transform="translate(82)"/>
</clipPath>
</defs>
</svg>
