<svg width="523" height="342" viewBox="0 0 523 342" fill="none" xmlns="http://www.w3.org/2000/svg">
<path d="M36.5789 299.454C56.3938 299.454 72.4569 269.977 72.4569 233.615C72.4569 197.253 56.3938 167.775 36.5789 167.775C16.764 167.775 0.700928 197.253 0.700928 233.615C0.700928 269.977 16.764 299.454 36.5789 299.454Z" fill="#807BB7"/>
<path d="M33.2658 341.383C47.6353 263.844 33.4104 186.585 33.2651 185.814L30.47 186.24C30.6146 187.007 44.7578 263.86 30.4692 340.964L33.2658 341.383Z" fill="#333333"/>
<path d="M4.99176 219.457L3.65442 221.706L36.0978 237.313L37.4351 235.064L4.99176 219.457Z" fill="#333333"/>
<path d="M70.3386 227.275L37.899 242.891L39.2371 245.14L71.6767 229.524L70.3386 227.275Z" fill="#333333"/>
<path d="M122.783 258.188C161.538 258.188 192.956 200.534 192.956 129.414C192.956 58.2946 161.538 0.640625 122.783 0.640625C84.0274 0.640625 52.6099 58.2946 52.6099 129.414C52.6099 200.534 84.0274 258.188 122.783 258.188Z" fill="#E6E6E6"/>
<path d="M114.967 339.997C143.034 188.539 115.25 37.6337 114.966 36.1272L112.171 36.553C112.454 38.0558 140.157 188.556 112.17 339.578L114.967 339.997Z" fill="#333333"/>
<path d="M60.3622 102.798L59.0249 105.047L122.482 135.573L123.819 133.325L60.3622 102.798Z" fill="#333333"/>
<path d="M189.452 118.09L126.004 148.633L127.342 150.881L190.79 120.339L189.452 118.09Z" fill="#333333"/>
<g clip-path="url(#clip0)">
<path d="M163.118 148.876C163.478 171.4 171.771 173.838 181.956 171.489C193.591 168.805 203.141 160.394 207.848 149.265L211.094 141.589C213.252 136.487 213.324 130.723 211.296 125.566C209.267 120.409 205.303 116.282 200.276 114.091H200.276C197.787 113.007 195.112 112.43 192.404 112.395C189.695 112.36 187.006 112.867 184.491 113.886C181.975 114.906 179.682 116.418 177.742 118.337C175.802 120.257 174.254 122.545 173.186 125.071C162.74 129.236 160.678 137.859 163.118 148.876Z" fill="#2F2E41"/>
<path d="M228.609 103.543L231.735 98.1732C232.117 97.5176 232.347 96.7826 232.409 96.0236C232.471 95.2646 232.363 94.5012 232.093 93.7907C231.822 93.0802 231.397 92.441 230.849 91.9211C230.301 91.4012 229.643 91.014 228.927 90.7887C228.17 90.5509 227.369 90.5001 226.589 90.6405C225.809 90.7809 225.074 91.1084 224.444 91.5958C223.814 92.0831 223.308 92.7163 222.968 93.4423C222.628 94.1684 222.464 94.9665 222.49 95.7699L222.674 101.542L207.983 142.408L215.994 144.106L228.609 103.543Z" fill="#9F616A"/>
<path d="M151.319 204.286L147.471 209.149C147.002 209.743 146.67 210.437 146.502 211.179C146.335 211.921 146.334 212.693 146.502 213.435C146.67 214.177 147.001 214.872 147.471 215.465C147.941 216.059 148.537 216.538 149.214 216.864C149.93 217.209 150.716 217.375 151.508 217.349C152.299 217.323 153.073 217.105 153.765 216.714C154.457 216.322 155.046 215.769 155.485 215.099C155.923 214.43 156.197 213.664 156.285 212.865L156.913 207.125L177.19 168.8L169.499 165.961L151.319 204.286Z" fill="#9F616A"/>
<path d="M175.093 244.741L175.659 251.647L175.792 253.258L213.451 249.581C214.749 249.433 215.995 248.976 217.086 248.247C218.177 247.518 219.084 246.538 219.731 245.386C220.379 244.235 220.75 242.945 220.815 241.62C220.879 240.296 220.634 238.975 220.101 237.764L207.956 211.299L203.76 202.157L185.581 197.899C170.59 209.545 184.077 222.399 201.047 235.401C201.712 235.912 202.383 236.423 203.061 236.934L175.093 244.741Z" fill="#2F2E41"/>
<path d="M162.403 268.654C162.862 268.72 163.33 268.666 163.762 268.496C164.194 268.327 164.576 268.047 164.872 267.684L177.19 252.548L176.491 245.451L172.291 242.893C171.947 242.683 171.563 242.553 171.164 242.509C170.766 242.466 170.363 242.511 169.984 242.642C169.604 242.773 169.257 242.986 168.967 243.266C168.677 243.547 168.451 243.888 168.303 244.266L160.269 264.927C160.119 265.313 160.057 265.728 160.087 266.142C160.118 266.555 160.241 266.957 160.446 267.315C160.652 267.674 160.934 267.981 161.273 268.212C161.612 268.444 161.998 268.595 162.403 268.654Z" fill="#2F2E41"/>
<path opacity="0.2" d="M172.995 243.322L173.694 251.838L175.659 251.647L211.354 248.162C212.652 248.013 213.897 247.556 214.988 246.827C216.079 246.098 216.986 245.118 217.634 243.967C218.282 242.815 218.653 241.525 218.717 240.201C218.781 238.876 218.537 237.555 218.003 236.345L207.956 213.513V211.298L203.76 202.157L185.581 197.899C170.59 209.545 184.077 222.399 201.047 235.401L200.963 235.514L172.995 243.322Z" fill="black"/>
<path d="M158.907 265.815C159.366 265.882 159.834 265.827 160.266 265.658C160.698 265.488 161.08 265.208 161.375 264.845L173.694 249.709L172.995 242.612L168.795 240.054C168.451 239.844 168.067 239.714 167.668 239.67C167.27 239.627 166.867 239.672 166.487 239.803C166.108 239.934 165.761 240.147 165.471 240.427C165.181 240.708 164.954 241.049 164.807 241.427L156.773 262.088C156.623 262.474 156.561 262.889 156.591 263.303C156.622 263.716 156.745 264.118 156.95 264.476C157.155 264.835 157.438 265.142 157.777 265.374C158.116 265.605 158.502 265.756 158.907 265.815Z" fill="#2F2E41"/>
<path d="M171.596 241.902L172.296 250.419L209.955 246.741C211.253 246.593 212.498 246.136 213.59 245.407C214.681 244.678 215.588 243.699 216.236 242.547C216.884 241.396 217.255 240.106 217.32 238.782C217.385 237.458 217.141 236.137 216.608 234.926L206.557 212.093V199.318L182.085 195.06C166.504 207.164 181.685 220.572 199.565 234.095L171.596 241.902Z" fill="#2F2E41"/>
<path d="M195.37 141.83C201.162 141.83 205.858 137.064 205.858 131.184C205.858 125.305 201.162 120.538 195.37 120.538C189.577 120.538 184.881 125.305 184.881 131.184C184.881 137.064 189.577 141.83 195.37 141.83Z" fill="#9F616A"/>
<path d="M181.385 148.927L196.069 158.864L208.655 156.025L201.663 148.927V138.281L190.475 137.572C190.24 141.823 187.84 145.713 181.385 148.927Z" fill="#9F616A"/>
<path d="M179.288 198.609L206.557 202.157L212.85 172.349C215.773 164.436 214.096 157.445 208.683 151.203C208.476 150.152 207.925 149.204 207.119 148.512C206.313 147.82 205.3 147.426 204.245 147.394L201.663 147.508C201.955 156.921 195.122 154.654 184.881 146.798L183.645 147.175C182.046 147.662 180.674 148.716 179.779 150.146C178.883 151.576 178.525 153.285 178.77 154.961L179.898 162.687C180.376 165.75 181.118 168.764 182.117 171.694C184.913 180.176 183.914 189.154 179.288 198.609Z" fill="#F0B656"/>
<path d="M166.702 166.671L179.288 170.929L184.881 150.347L182.986 149.473C181.415 148.748 179.631 148.657 177.996 149.218C176.362 149.779 174.998 150.951 174.183 152.495L166.702 166.671Z" fill="#F0B656"/>
<path d="M203.76 147.508L210.752 155.315L219.143 141.83L208.654 136.152L203.76 147.508Z" fill="#F0B656"/>
<path d="M183.133 127.99C189.724 130.513 196.758 130.251 204.11 127.99V119.474H183.133V127.99Z" fill="#2F2E41"/>
<path d="M510.243 274.189L503.012 277.247L454.808 210.581L419.86 278.47L410.822 276.636L437.334 183.058H468.064L510.243 274.189Z" fill="#2F2E41"/>
<path d="M519.944 289.741C519.543 289.852 519.124 289.881 518.712 289.827C518.3 289.773 517.903 289.637 517.543 289.427L502.294 280.515C501.882 280.275 501.53 279.941 501.266 279.541C501.002 279.14 500.832 278.683 500.77 278.205C500.708 277.727 500.755 277.241 500.907 276.785C501.06 276.328 501.314 275.913 501.649 275.572L503.012 274.189L510.243 273.577L521.297 284.348C521.699 284.74 521.991 285.233 522.144 285.777C522.297 286.321 522.305 286.897 522.168 287.445C522.03 287.993 521.752 288.494 521.361 288.898C520.97 289.301 520.481 289.592 519.944 289.741Z" fill="#2F2E41"/>
<path d="M401.724 292.187C402.125 292.298 402.543 292.328 402.955 292.274C403.367 292.22 403.765 292.084 404.125 291.873L419.374 282.962C419.785 282.721 420.137 282.388 420.401 281.987C420.665 281.586 420.835 281.129 420.897 280.652C420.96 280.174 420.913 279.688 420.76 279.231C420.608 278.774 420.354 278.36 420.018 278.019L418.655 276.635L411.424 276.024L400.371 286.795C399.969 287.187 399.676 287.68 399.523 288.224C399.37 288.768 399.362 289.343 399.5 289.891C399.637 290.439 399.915 290.941 400.306 291.344C400.697 291.748 401.186 292.038 401.724 292.187Z" fill="#2F2E41"/>
<path d="M416.847 85.8109L413.835 87.6458L407.591 77.3477C407.208 76.7152 406.98 75.9984 406.926 75.2578C406.873 74.5171 406.996 73.7743 407.285 73.092C407.574 72.4096 408.02 71.8078 408.586 71.3372C409.152 70.8667 409.821 70.5412 410.537 70.3882C411.174 70.2522 411.832 70.2559 412.467 70.3991C413.102 70.5423 413.699 70.8216 414.219 71.2184C414.739 71.6152 415.17 72.1203 415.481 72.6998C415.793 73.2792 415.98 73.9197 416.028 74.5782L416.847 85.8109Z" fill="#FFB9B9"/>
<path d="M500.305 165.987L501.555 162.654L512.735 166.828C513.422 167.085 514.038 167.505 514.531 168.054C515.024 168.602 515.38 169.263 515.568 169.981C515.757 170.698 515.773 171.451 515.615 172.176C515.456 172.901 515.129 173.577 514.659 174.147C514.242 174.653 513.723 175.063 513.136 175.349C512.55 175.635 511.91 175.791 511.26 175.805C510.61 175.82 509.964 175.693 509.366 175.433C508.767 175.174 508.231 174.787 507.792 174.3L500.305 165.987Z" fill="#FFB9B9"/>
<path d="M453 122.508C457.992 122.508 462.039 118.4 462.039 113.334C462.039 108.267 457.992 104.159 453 104.159C448.009 104.159 443.962 108.267 443.962 113.334C443.962 118.4 448.009 122.508 453 122.508Z" fill="#FFB9B9"/>
<path d="M460.834 132.905H448.18V118.838L459.026 117.615L460.834 132.905Z" fill="#FFB9B9"/>
<path d="M469.872 186.728H435.526C436.737 167.276 437.696 148.478 435.526 137.798L437.523 128.068C437.8 126.72 438.567 125.527 439.67 124.726C440.774 123.925 442.134 123.576 443.481 123.747L448.18 124.343C451.362 130.022 455.209 129.967 459.628 124.954H465.289C466.043 124.954 466.791 125.107 467.486 125.404C468.182 125.7 468.813 126.135 469.341 126.682C469.869 127.229 470.285 127.877 470.563 128.589C470.842 129.301 470.977 130.063 470.962 130.828C472.437 137.682 472.927 144.715 472.419 151.711L469.872 186.728Z" fill="#3F3D56"/>
<path d="M412.027 85.8109L416.847 83.3646L442.757 126.789L435.527 137.798L412.027 85.8109Z" fill="#3F3D56"/>
<path d="M500.373 167.727L504.493 164.2L482.603 133.066C480.462 130.02 477.51 127.656 474.092 126.252C470.675 124.847 466.935 124.46 463.309 125.136L462.618 125.265L470.895 139.968L481.797 148.346L500.373 167.727Z" fill="#3F3D56"/>
<path d="M463.453 107.918C463.453 107.918 465.142 104.146 460.751 102.432C460.751 102.432 457.035 96.2606 449.604 100.375C449.604 100.375 444.538 102.432 444.538 107.918C444.538 113.404 442.849 114.432 442.849 114.432C442.849 114.432 445.364 111.813 446.039 109.756C446.715 107.699 451.969 107.232 453.995 109.289C456.022 111.347 461.089 111.004 461.089 111.004L460.751 118.547C460.751 118.547 462.44 114.089 463.116 114.089C463.791 114.089 464.467 107.918 463.453 107.918Z" fill="#2F2E41"/>
</g>
<defs>
<clipPath id="clip0">
<rect width="375.892" height="266.693" fill="white" transform="translate(146.375 46.5295)"/>
</clipPath>
</defs>
</svg>
