<svg width="377" height="268" viewBox="0 0 377 268" fill="none" xmlns="http://www.w3.org/2000/svg">
<g clip-path="url(#clip0)">
<path d="M17.1183 102.876C17.4777 125.4 25.7713 127.838 35.9563 125.489C47.5914 122.805 57.1412 114.394 61.8479 103.265L65.0939 95.5894C67.2518 90.4868 67.3245 84.7231 65.2958 79.5662C63.2671 74.4093 59.3033 70.2816 54.2764 68.0911H54.2764C51.7873 67.0065 49.1121 66.4302 46.4036 66.395C43.6951 66.3599 41.0063 66.8665 38.4907 67.8861C35.975 68.9057 33.6819 70.4183 31.7422 72.3374C29.8025 74.2566 28.2542 76.5448 27.1857 79.0713C16.7405 83.2361 14.6776 91.8585 17.1183 102.876Z" fill="#2F2E41"/>
<path d="M82.6088 57.5427L85.7348 52.1732C86.1166 51.5176 86.3471 50.7826 86.409 50.0236C86.471 49.2646 86.3629 48.5012 86.0927 47.7907C85.8225 47.0802 85.3973 46.441 84.849 45.9211C84.3007 45.4012 83.6435 45.014 82.9267 44.7887C82.1702 44.5509 81.3687 44.5001 80.5889 44.6405C79.8091 44.7809 79.0737 45.1084 78.4439 45.5958C77.814 46.0831 77.3081 46.7163 76.9683 47.4423C76.6284 48.1684 76.4644 48.9665 76.49 49.7699L76.6737 55.5416L61.9825 96.4084L69.9939 98.1061L82.6088 57.5427Z" fill="#9F616A"/>
<path d="M5.31928 158.286L1.47147 163.149C1.0016 163.743 0.670302 164.437 0.502431 165.179C0.33456 165.921 0.334475 166.693 0.502181 167.435C0.669887 168.177 1.00103 168.872 1.47077 169.465C1.94051 170.059 2.53664 170.538 3.21445 170.864C3.92987 171.209 4.71611 171.375 5.50765 171.349C6.29919 171.323 7.07311 171.105 7.76489 170.714C8.45668 170.322 9.04629 169.769 9.48461 169.099C9.92293 168.43 10.1972 167.664 10.2847 166.865L10.913 161.125L31.1901 122.8L23.4988 119.961L5.31928 158.286Z" fill="#9F616A"/>
<path d="M29.0925 198.741L29.6589 205.647L29.7917 207.258L67.4513 203.581C68.7494 203.433 69.9947 202.976 71.0859 202.247C72.1771 201.518 73.0835 200.538 73.7314 199.386C74.3793 198.235 74.7504 196.945 74.8146 195.62C74.8788 194.296 74.6343 192.975 74.1008 191.764L61.9555 165.299L57.7602 156.157L39.5807 151.899C24.5896 163.545 38.0774 176.399 55.0473 189.401C55.7116 189.912 56.3828 190.423 57.061 190.934L29.0925 198.741Z" fill="#2F2E41"/>
<path d="M16.4029 222.654C16.8618 222.72 17.3298 222.666 17.7621 222.496C18.1943 222.327 18.5764 222.047 18.8716 221.684L31.1902 206.548L30.491 199.451L26.2907 196.893C25.9471 196.683 25.5627 196.553 25.1643 196.509C24.7659 196.466 24.363 196.511 23.9836 196.642C23.6041 196.773 23.2573 196.986 22.9672 197.266C22.677 197.547 22.4505 197.888 22.3034 198.266L14.2688 218.927C14.1188 219.313 14.0568 219.728 14.0875 220.142C14.1182 220.555 14.2409 220.957 14.4462 221.315C14.6516 221.674 14.9343 221.981 15.2732 222.212C15.6121 222.444 15.9983 222.595 16.4029 222.654Z" fill="#2F2E41"/>
<path opacity="0.2" d="M26.9949 197.322L27.6941 205.838L29.6589 205.647L65.3536 202.162C66.6517 202.013 67.897 201.556 68.9882 200.827C70.0795 200.098 70.9859 199.118 71.6338 197.967C72.2817 196.815 72.6528 195.525 72.717 194.201C72.7812 192.876 72.5366 191.555 72.0032 190.345L61.9555 167.513V165.298L57.7602 156.157L39.5807 151.899C24.5896 163.545 38.0774 176.399 55.0473 189.401L54.9634 189.514L26.9949 197.322Z" fill="black"/>
<path d="M12.9068 219.815C13.3657 219.882 13.8337 219.827 14.2659 219.658C14.6982 219.488 15.0803 219.208 15.3755 218.845L27.6941 203.709L26.9949 196.612L22.7946 194.054C22.451 193.844 22.0666 193.714 21.6682 193.67C21.2698 193.627 20.8669 193.672 20.4875 193.803C20.108 193.934 19.7612 194.147 19.4711 194.427C19.1809 194.708 18.9544 195.049 18.8073 195.427L10.7727 216.088C10.6227 216.474 10.5607 216.889 10.5914 217.303C10.6221 217.716 10.7448 218.118 10.9501 218.476C11.1555 218.835 11.4382 219.142 11.7771 219.374C12.116 219.605 12.5022 219.756 12.9068 219.815Z" fill="#2F2E41"/>
<path d="M25.5964 195.902L26.2956 204.419L63.9552 200.741C65.2533 200.593 66.4985 200.136 67.5897 199.407C68.681 198.678 69.5875 197.699 70.2357 196.547C70.8838 195.396 71.2553 194.106 71.3199 192.782C71.3846 191.458 71.1405 190.137 70.6077 188.926L60.5571 166.093V153.318L36.0846 149.06C20.5036 161.164 35.6848 174.572 53.5649 188.095L25.5964 195.902Z" fill="#2F2E41"/>
<path d="M49.3697 95.8301C55.1621 95.8301 59.8578 91.0637 59.8578 85.1841C59.8578 79.3045 55.1621 74.5382 49.3697 74.5382C43.5772 74.5382 38.8815 79.3045 38.8815 85.1841C38.8815 91.0637 43.5772 95.8301 49.3697 95.8301Z" fill="#9F616A"/>
<path d="M35.3854 102.927L50.0688 112.864L62.6546 110.025L55.6625 102.927V92.2814L44.4751 91.5717C44.2402 95.823 41.8403 99.7132 35.3854 102.927Z" fill="#9F616A"/>
<path d="M33.2878 152.609L60.557 156.157L66.85 126.349C69.7734 118.436 68.0961 111.445 62.6835 105.203C62.4765 104.152 61.9251 103.204 61.119 102.512C60.313 101.82 59.2999 101.426 58.2449 101.394L55.6626 101.508C55.9547 110.921 49.1224 108.654 38.8815 100.798L37.6449 101.175C36.0463 101.662 34.6738 102.716 33.7786 104.146C32.8834 105.576 32.5254 107.285 32.77 108.961L33.8975 116.687C34.3757 119.75 35.1184 122.764 36.1172 125.694C38.913 134.176 37.9139 143.154 33.2878 152.609Z" fill="#F0B656"/>
<path d="M20.7019 120.671L33.2877 124.929L38.8814 104.347L36.9864 103.473C35.4153 102.748 33.6313 102.657 31.9965 103.218C30.3616 103.779 28.9984 104.951 28.1834 106.495L20.7019 120.671Z" fill="#F0B656"/>
<path d="M57.7601 101.508L64.7524 109.315L73.1427 95.83L62.6545 90.1523L57.7601 101.508Z" fill="#F0B656"/>
<path d="M37.1334 81.9903C43.7242 84.513 50.7579 84.2514 58.1098 81.9903V73.4736H37.1334V81.9903Z" fill="#2F2E41"/>
<path d="M364.243 228.189L357.012 231.247L308.808 164.581L273.86 232.47L264.822 230.636L291.334 137.058H322.064L364.243 228.189Z" fill="#2F2E41"/>
<path d="M373.944 243.741C373.543 243.852 373.124 243.881 372.712 243.827C372.3 243.773 371.903 243.637 371.543 243.427L356.294 234.515C355.882 234.275 355.53 233.941 355.266 233.541C355.002 233.14 354.832 232.683 354.77 232.205C354.708 231.727 354.755 231.241 354.907 230.785C355.06 230.328 355.314 229.913 355.649 229.572L357.012 228.189L364.243 227.577L375.297 238.348C375.699 238.74 375.991 239.233 376.144 239.777C376.297 240.321 376.305 240.897 376.168 241.445C376.03 241.993 375.752 242.494 375.361 242.898C374.97 243.301 374.481 243.592 373.944 243.741Z" fill="#2F2E41"/>
<path d="M255.724 246.187C256.125 246.298 256.543 246.328 256.955 246.274C257.367 246.22 257.765 246.084 258.125 245.873L273.374 236.962C273.785 236.721 274.137 236.388 274.401 235.987C274.665 235.586 274.835 235.129 274.897 234.652C274.96 234.174 274.913 233.688 274.76 233.231C274.608 232.774 274.354 232.36 274.018 232.019L272.655 230.635L265.424 230.024L254.371 240.795C253.969 241.187 253.676 241.68 253.523 242.224C253.37 242.768 253.362 243.343 253.5 243.891C253.637 244.439 253.915 244.941 254.306 245.344C254.697 245.748 255.186 246.038 255.724 246.187Z" fill="#2F2E41"/>
<path d="M270.847 39.8109L267.835 41.6458L261.591 31.3477C261.208 30.7152 260.98 29.9984 260.926 29.2578C260.873 28.5171 260.996 27.7743 261.285 27.092C261.574 26.4096 262.02 25.8078 262.586 25.3372C263.152 24.8667 263.821 24.5412 264.537 24.3882C265.174 24.2522 265.832 24.2559 266.467 24.3991C267.102 24.5423 267.699 24.8216 268.219 25.2184C268.739 25.6152 269.17 26.1203 269.481 26.6998C269.793 27.2792 269.98 27.9197 270.028 28.5782L270.847 39.8109Z" fill="#FFB9B9"/>
<path d="M354.305 119.987L355.555 116.654L366.735 120.828C367.422 121.085 368.038 121.505 368.531 122.054C369.024 122.602 369.38 123.263 369.568 123.981C369.757 124.698 369.773 125.451 369.615 126.176C369.456 126.901 369.129 127.577 368.659 128.147C368.242 128.653 367.723 129.063 367.136 129.349C366.55 129.635 365.91 129.791 365.26 129.805C364.61 129.82 363.964 129.693 363.366 129.433C362.767 129.174 362.231 128.787 361.792 128.3L354.305 119.987Z" fill="#FFB9B9"/>
<path d="M307 76.5079C311.992 76.5079 316.039 72.4004 316.039 67.3336C316.039 62.2668 311.992 58.1594 307 58.1594C302.009 58.1594 297.962 62.2668 297.962 67.3336C297.962 72.4004 302.009 76.5079 307 76.5079Z" fill="#FFB9B9"/>
<path d="M314.834 86.9053H302.18V72.8382L313.026 71.6149L314.834 86.9053Z" fill="#FFB9B9"/>
<path d="M323.872 140.728H289.526C290.737 121.276 291.696 102.478 289.526 91.7983L291.523 82.0682C291.8 80.72 292.567 79.5269 293.67 78.7262C294.774 77.9254 296.134 77.5757 297.481 77.7465L302.18 78.3427C305.362 84.0218 309.209 83.967 313.628 78.9544H319.289C320.043 78.9544 320.791 79.1072 321.486 79.4038C322.182 79.7004 322.813 80.135 323.341 80.6819C323.869 81.2289 324.285 81.8774 324.563 82.5894C324.842 83.3013 324.977 84.0625 324.962 84.8284C326.437 91.6816 326.927 98.7152 326.419 105.711L323.872 140.728Z" fill="#3F3D56"/>
<path d="M266.027 39.8109L270.847 37.3646L296.757 80.7894L289.527 91.7983L266.027 39.8109Z" fill="#3F3D56"/>
<path d="M354.373 121.727L358.493 118.2L336.603 87.0655C334.462 84.0196 331.51 81.656 328.092 80.2517C324.675 78.8474 320.935 78.4605 317.309 79.1362L316.618 79.265L324.895 93.9676L335.797 102.346L354.373 121.727Z" fill="#3F3D56"/>
<path d="M317.453 61.9179C317.453 61.9179 319.142 58.1464 314.751 56.4321C314.751 56.4321 311.035 50.2606 303.604 54.3749C303.604 54.3749 298.538 56.4321 298.538 61.9179C298.538 67.4037 296.849 68.4323 296.849 68.4323C296.849 68.4323 299.364 65.8133 300.039 63.7561C300.715 61.6989 305.969 61.2322 307.995 63.2894C310.022 65.3465 315.089 65.0037 315.089 65.0037L314.751 72.5466C314.751 72.5466 316.44 68.0894 317.116 68.0894C317.791 68.0894 318.467 61.9179 317.453 61.9179Z" fill="#2F2E41"/>
</g>
<defs>
<clipPath id="clip0">
<rect width="375.892" height="266.693" fill="white" transform="translate(0.375244 0.52948)"/>
</clipPath>
</defs>
</svg>
