<svg width="196" height="87" viewBox="0 0 196 87" fill="none" xmlns="http://www.w3.org/2000/svg">
<g filter="url(#filter0_d)">
<rect x="11" y="11" width="162" height="53" rx="12" fill="#2CBE43"/>
<path d="M47.056 44.114C45.7387 44.114 44.548 43.8227 43.484 43.24C42.4327 42.6573 41.603 41.853 40.995 40.827C40.3997 39.7883 40.102 38.6293 40.102 37.35C40.102 36.0707 40.3997 34.918 40.995 33.892C41.603 32.8533 42.439 32.0427 43.503 31.46C44.567 30.8773 45.7577 30.586 47.075 30.586C48.063 30.586 48.975 30.7507 49.811 31.08C50.647 31.4093 51.3563 31.8907 51.939 32.524L51.046 33.417C50.0073 32.3657 48.6963 31.84 47.113 31.84C46.0617 31.84 45.1053 32.0807 44.244 32.562C43.3827 33.0433 42.705 33.702 42.211 34.538C41.7297 35.374 41.489 36.3113 41.489 37.35C41.489 38.3887 41.7297 39.326 42.211 40.162C42.705 40.998 43.3827 41.6567 44.244 42.138C45.1053 42.6193 46.0617 42.86 47.113 42.86C48.709 42.86 50.02 42.328 51.046 41.264L51.939 42.157C51.3563 42.7903 50.6407 43.278 49.792 43.62C48.956 43.9493 48.044 44.114 47.056 44.114ZM58.1973 44.095C57.2346 44.095 56.3669 43.8797 55.5943 43.449C54.8216 43.0057 54.2136 42.3977 53.7703 41.625C53.3269 40.8523 53.1053 39.9783 53.1053 39.003C53.1053 38.0277 53.3269 37.1537 53.7703 36.381C54.2136 35.6083 54.8216 35.0067 55.5943 34.576C56.3669 34.1453 57.2346 33.93 58.1973 33.93C59.1599 33.93 60.0276 34.1453 60.8003 34.576C61.5729 35.0067 62.1746 35.6083 62.6053 36.381C63.0486 37.1537 63.2703 38.0277 63.2703 39.003C63.2703 39.9783 63.0486 40.8523 62.6053 41.625C62.1746 42.3977 61.5729 43.0057 60.8003 43.449C60.0276 43.8797 59.1599 44.095 58.1973 44.095ZM58.1973 42.898C58.9066 42.898 59.5399 42.7397 60.0973 42.423C60.6673 42.0937 61.1106 41.6313 61.4273 41.036C61.7439 40.4407 61.9023 39.763 61.9023 39.003C61.9023 38.243 61.7439 37.5653 61.4273 36.97C61.1106 36.3747 60.6673 35.9187 60.0973 35.602C59.5399 35.2727 58.9066 35.108 58.1973 35.108C57.4879 35.108 56.8483 35.2727 56.2783 35.602C55.7209 35.9187 55.2776 36.3747 54.9483 36.97C54.6316 37.5653 54.4733 38.243 54.4733 39.003C54.4733 39.763 54.6316 40.4407 54.9483 41.036C55.2776 41.6313 55.7209 42.0937 56.2783 42.423C56.8483 42.7397 57.4879 42.898 58.1973 42.898ZM72.0518 44L68.8788 39.82L65.6868 44H64.1668L68.1188 38.87L64.3568 34.006H65.8768L68.8788 37.92L71.8808 34.006H73.3628L69.6008 38.87L73.5908 44H72.0518ZM80.9508 33.93C81.8881 33.93 82.7368 34.1453 83.4968 34.576C84.2568 34.994 84.8521 35.5893 85.2828 36.362C85.7135 37.1347 85.9288 38.015 85.9288 39.003C85.9288 40.0037 85.7135 40.8903 85.2828 41.663C84.8521 42.4357 84.2568 43.0373 83.4968 43.468C82.7495 43.886 81.9008 44.095 80.9508 44.095C80.1401 44.095 79.4055 43.9303 78.7468 43.601C78.1008 43.259 77.5688 42.765 77.1508 42.119V47.686H75.8018V34.006H77.0938V35.982C77.4991 35.3233 78.0311 34.8167 78.6898 34.462C79.3611 34.1073 80.1148 33.93 80.9508 33.93ZM80.8558 42.898C81.5525 42.898 82.1858 42.7397 82.7558 42.423C83.3258 42.0937 83.7691 41.6313 84.0858 41.036C84.4151 40.4407 84.5798 39.763 84.5798 39.003C84.5798 38.243 84.4151 37.5717 84.0858 36.989C83.7691 36.3937 83.3258 35.9313 82.7558 35.602C82.1858 35.2727 81.5525 35.108 80.8558 35.108C80.1465 35.108 79.5068 35.2727 78.9368 35.602C78.3795 35.9313 77.9361 36.3937 77.6068 36.989C77.2901 37.5717 77.1318 38.243 77.1318 39.003C77.1318 39.763 77.2901 40.4407 77.6068 41.036C77.9361 41.6313 78.3795 42.0937 78.9368 42.423C79.5068 42.7397 80.1465 42.898 80.8558 42.898ZM92.2105 33.93C93.5152 33.93 94.5159 34.2593 95.2125 34.918C95.9092 35.564 96.2575 36.5267 96.2575 37.806V44H94.9655V42.442C94.6615 42.9613 94.2119 43.3667 93.6165 43.658C93.0339 43.9493 92.3372 44.095 91.5265 44.095C90.4119 44.095 89.5252 43.829 88.8665 43.297C88.2079 42.765 87.8785 42.062 87.8785 41.188C87.8785 40.3393 88.1825 39.6553 88.7905 39.136C89.4112 38.6167 90.3929 38.357 91.7355 38.357H94.9085V37.749C94.9085 36.8877 94.6679 36.2353 94.1865 35.792C93.7052 35.336 93.0022 35.108 92.0775 35.108C91.4442 35.108 90.8362 35.2157 90.2535 35.431C89.6709 35.6337 89.1705 35.9187 88.7525 36.286L88.1445 35.279C88.6512 34.8483 89.2592 34.519 89.9685 34.291C90.6779 34.0503 91.4252 33.93 92.2105 33.93ZM91.7355 43.031C92.4955 43.031 93.1479 42.86 93.6925 42.518C94.2372 42.1633 94.6425 41.6567 94.9085 40.998V39.364H91.7735C90.0635 39.364 89.2085 39.9593 89.2085 41.15C89.2085 41.7327 89.4302 42.195 89.8735 42.537C90.3169 42.8663 90.9375 43.031 91.7355 43.031ZM99.8487 34.006H101.198V38.433H107.487V34.006H108.836V44H107.487V39.592H101.198V44H99.8487V34.006ZM112.67 34.006H114.019V41.948L120.688 34.006H121.885V44H120.536V36.058L113.886 44H112.67V34.006ZM132.781 35.203H129V44H127.651V35.203H123.87V34.006H132.781V35.203ZM139.026 37.54C140.28 37.5527 141.23 37.8313 141.876 38.376C142.534 38.9207 142.864 39.706 142.864 40.732C142.864 41.796 142.509 42.613 141.8 43.183C141.103 43.753 140.09 44.0317 138.76 44.019L134.732 44V34.006H136.081V37.502L139.026 37.54ZM138.684 42.993C139.608 43.0057 140.305 42.822 140.774 42.442C141.255 42.0493 141.496 41.4793 141.496 40.732C141.496 39.9973 141.261 39.4527 140.793 39.098C140.324 38.7433 139.621 38.5597 138.684 38.547L136.081 38.509V42.955L138.684 42.993Z" fill="black"/>
</g>
<defs>
<filter id="filter0_d" x="0" y="0" width="196" height="87" filterUnits="userSpaceOnUse" color-interpolation-filters="sRGB">
<feFlood flood-opacity="0" result="BackgroundImageFix"/>
<feColorMatrix in="SourceAlpha" type="matrix" values="0 0 0 0 0 0 0 0 0 0 0 0 0 0 0 0 0 0 127 0"/>
<feOffset dx="6" dy="6"/>
<feGaussianBlur stdDeviation="8.5"/>
<feColorMatrix type="matrix" values="0 0 0 0 0 0 0 0 0 0 0 0 0 0 0 0 0 0 0.25 0"/>
<feBlend mode="normal" in2="BackgroundImageFix" result="effect1_dropShadow"/>
<feBlend mode="normal" in="SourceGraphic" in2="effect1_dropShadow" result="shape"/>
</filter>
</defs>
</svg>
