<svg width="46" height="49" viewBox="0 0 46 49" fill="none" xmlns="http://www.w3.org/2000/svg">
<path d="M31.1164 7.81843C28.7314 5.35034 25.6876 3.61059 22.3427 2.80364C18.9978 1.99669 15.4909 2.15607 12.2339 3.26303C8.97695 4.37 6.10535 6.37857 3.95654 9.0527C1.80773 11.7268 0.470987 14.9554 0.103412 18.3591C-0.264162 21.7627 0.352697 25.2 1.8815 28.267C3.4103 31.334 5.78752 33.9033 8.73382 35.673C11.6801 37.4426 15.0731 38.3391 18.5139 38.257C21.9548 38.175 25.3007 37.1178 28.1583 35.2098L41.2287 48.7314C41.3905 48.8987 41.6124 48.9953 41.8456 48.9998C42.0789 49.0044 42.3045 48.9166 42.4727 48.7558L45.73 45.6412C45.8982 45.4804 45.9952 45.2597 45.9998 45.0277C46.0044 44.7956 45.9161 44.5713 45.7544 44.404L32.684 30.8824C35.1899 27.4679 36.4063 23.2845 36.1197 19.0667C35.833 14.849 34.0616 10.8665 31.1164 7.81843ZM27.0455 29.5538C25.2016 31.317 22.8734 32.4967 20.3554 32.9438C17.8374 33.3909 15.2426 33.0853 12.8992 32.0657C10.5558 31.0461 8.56896 29.3583 7.19002 27.2156C5.81109 25.073 5.10196 22.5718 5.15229 20.0283C5.20263 17.4848 6.01017 15.0133 7.4728 12.9263C8.93544 10.8392 10.9875 9.23046 13.3694 8.30336C15.7513 7.37626 18.3562 7.17248 20.8546 7.71779C23.3529 8.2631 25.6327 9.53301 27.4054 11.3669C29.7825 13.8261 31.08 17.1238 31.0126 20.5345C30.9451 23.9452 29.5181 27.1896 27.0455 29.5538Z" fill="url(#paint0_linear)"/>
<path d="M8.43335 16.8438C7.41198 16.8438 7.41028 19.1406 8.43335 19.1406C9.45473 19.1406 9.45643 16.8438 8.43335 16.8438Z" fill="url(#paint1_linear)"/>
<path d="M18.5447 9.1924C16.7305 9.13707 14.9323 9.55097 13.3197 10.3951C11.7071 11.2392 10.3333 12.4857 9.32775 14.017C8.72 14.981 10.4455 15.8328 11.05 14.874C12.5924 12.4272 15.5238 10.8738 18.6915 10.9542C20.2941 11.0114 21.858 11.4688 23.2442 12.2859C24.6304 13.103 25.796 14.2544 26.6375 15.6379C27.2449 16.6524 28.8359 15.7299 28.2324 14.7219C26.2918 11.481 22.5224 9.28366 18.5447 9.1924Z" fill="url(#paint2_linear)"/>
<path d="M31.1164 5.52156C28.7314 3.05346 25.6876 1.31372 22.3427 0.506769C18.9978 -0.300182 15.4909 -0.140809 12.2339 0.966157C8.97695 2.07312 6.10535 4.08169 3.95654 6.75582C1.80773 9.42996 0.470987 12.6586 0.103412 16.0622C-0.264162 19.4659 0.352697 22.9032 1.8815 25.9702C3.4103 29.0372 5.78752 31.6065 8.73382 33.3761C11.6801 35.1457 15.0731 36.0422 18.5139 35.9602C21.9548 35.8781 25.3007 34.821 28.1583 32.9129L41.2287 46.4346C41.3905 46.6018 41.6124 46.6984 41.8456 46.703C42.0789 46.7075 42.3045 46.6197 42.4727 46.4589L45.73 43.3444C45.8982 43.1835 45.9952 42.9628 45.9998 42.7308C46.0044 42.4988 45.9161 42.2744 45.7544 42.1071L32.684 28.5855C35.1899 25.171 36.4063 20.9876 36.1197 16.7698C35.833 12.5521 34.0616 8.56959 31.1164 5.52156ZM27.0455 27.257C25.2016 29.0201 22.8734 30.1998 20.3554 30.6469C17.8374 31.094 15.2426 30.7885 12.8992 29.7689C10.5558 28.7493 8.56896 27.0614 7.19002 24.9188C5.81109 22.7761 5.10196 20.2749 5.15229 17.7314C5.20263 15.1879 6.01017 12.7164 7.4728 10.6294C8.93544 8.54237 10.9875 6.93359 13.3694 6.00649C15.7513 5.07939 18.3562 4.87561 20.8546 5.42091C23.3529 5.96622 25.6327 7.23613 27.4054 9.07004C29.7825 11.5293 31.08 14.8269 31.0126 18.2376C30.9451 21.6484 29.5181 24.8927 27.0455 27.257Z" fill="#6C63FF"/>
<path d="M8.43335 14.5469C7.41198 14.5469 7.41028 16.8438 8.43335 16.8438C9.45473 16.8438 9.45643 14.5469 8.43335 14.5469Z" fill="#6C63FF"/>
<path d="M18.5447 6.89607C16.7305 6.83459 14.9323 7.29449 13.3197 8.23239C11.7071 9.17028 10.3333 10.5553 9.32775 12.2567C8.72 13.3279 10.4455 14.2743 11.05 13.2089C12.5924 10.4903 15.5238 8.76426 18.6915 8.85359C20.2941 8.91715 21.858 9.42544 23.2442 10.3333C24.6304 11.2412 25.796 12.5205 26.6375 14.0577C27.2449 15.185 28.8359 14.1599 28.2324 13.0399C26.2918 9.43893 22.5224 6.99746 18.5447 6.89607Z" fill="#6C63FF"/>
<defs>
<linearGradient id="paint0_linear" x1="23.0141" y1="49" x2="23.0141" y2="2.29873" gradientUnits="userSpaceOnUse">
<stop stop-color="#B3B3B3" stop-opacity="0.25"/>
<stop offset="0.53514" stop-color="#B3B3B3" stop-opacity="0.1"/>
<stop offset="1" stop-color="#B3B3B3" stop-opacity="0.05"/>
</linearGradient>
<linearGradient id="paint1_linear" x1="8.43335" y1="19.1406" x2="8.43335" y2="16.8438" gradientUnits="userSpaceOnUse">
<stop stop-opacity="0.12"/>
<stop offset="0.55135" stop-opacity="0.09"/>
<stop offset="1" stop-opacity="0.02"/>
</linearGradient>
<linearGradient id="paint2_linear" x1="16969.3" y1="1488.61" x2="16969.3" y2="1366.63" gradientUnits="userSpaceOnUse">
<stop stop-opacity="0.12"/>
<stop offset="0.55135" stop-opacity="0.09"/>
<stop offset="1" stop-opacity="0.02"/>
</linearGradient>
</defs>
</svg>
